<?xml version="1.0" encoding="UTF-8"?>
<svg version="1.1" xmlns="http://www.w3.org/2000/svg" width="498" height="501">
<path d="M0 0 C0.65838867 0.17160645 1.31677734 0.34321289 1.99511719 0.52001953 C19.43335524 5.14623773 36.4534611 14.83850964 48 29 C48 29.66 48 30.32 48 31 C48.99 31.33 49.98 31.66 51 32 C63.5134141 46.98699596 70.61358777 65.59022884 72 85 C73.051875 85.061875 74.10375 85.12375 75.1875 85.1875 C90.61876852 87.17074402 105.17541472 96.27753345 116 107 C116.86625 107.804375 117.7325 108.60875 118.625 109.4375 C124.18483187 115.43626597 129.11477325 121.6215673 132.89453125 128.89453125 C133.98610392 131.06213755 133.98610392 131.06213755 135.47265625 133.2109375 C137.51200686 136.93496904 138.53170469 140.72614007 139.625 144.8125 C139.8415625 145.58142578 140.058125 146.35035156 140.28125 147.14257812 C147.00853145 171.74698714 143.20224654 198.32739703 130.65625 220.37890625 C118.329057 239.88727065 99.80333867 253.82576505 77.57446289 259.94262695 C63.63668729 262.73129643 49.64049671 262.34792267 35.48254395 262.20599365 C32.03594575 262.17482553 28.58927782 262.16150243 25.14257812 262.14648438 C18.42820893 262.11372734 11.71414258 262.06376977 5 262 C5.66 260.68 6.32 259.36 7 258 C7.66 258 8.32 258 9 258 C9 257.34 9 256.68 9 256 C9.33 255.67 9.66 255.34 10 255 C9.0821875 254.93941406 8.164375 254.87882812 7.21875 254.81640625 C5.9915625 254.73261719 4.764375 254.64882813 3.5 254.5625 C2.2934375 254.48128906 1.086875 254.40007812 -0.15625 254.31640625 C-4.11508765 253.99052632 -8.05844629 253.49269421 -12 253 C-12.33 259.93 -12.66 266.86 -13 274 C-17.8680699 273.02638602 -21.24194446 271.39015353 -25.4375 268.9375 C-26.47680664 268.34110718 -26.47680664 268.34110718 -27.53710938 267.73266602 C-28.97544321 266.90667107 -30.41211827 266.07778132 -31.84716797 265.24609375 C-34.59795005 263.65389691 -37.35951046 262.08098836 -40.12133789 260.50805664 C-42.75021385 259.00999022 -45.37518457 257.5051676 -48 256 C-48.90878906 256.54527344 -48.90878906 256.54527344 -49.8359375 257.1015625 C-51.60772834 258.164637 -53.37989337 259.22708801 -55.15234375 260.2890625 C-56.93900476 261.36252961 -58.72324822 262.44004182 -60.50390625 263.5234375 C-76.90944882 273.4773622 -76.90944882 273.4773622 -83 275 C-83 268.07 -83 261.14 -83 254 C-86.56255095 253.97298824 -90.12489629 253.95315488 -93.6875 253.9375 C-95.19860352 253.92493164 -95.19860352 253.92493164 -96.74023438 253.91210938 C-97.71669922 253.90888672 -98.69316406 253.90566406 -99.69921875 253.90234375 C-100.59471436 253.89710693 -101.49020996 253.89187012 -102.4128418 253.88647461 C-105.03276538 253.91964545 -105.03276538 253.91964545 -107.64379883 254.63110352 C-110 255 -110 255 -113 253 C-113 252.34 -113 251.68 -113 251 C-113.66 251 -114.32 251 -115 251 C-115 250.34 -115 249.68 -115 249 C-115.66 249 -116.32 249 -117 249 C-117 248.34 -117 247.68 -117 247 C-120.68123533 244.64400939 -123.69953921 244.64162827 -128 245 C-130.76691556 245.83831242 -133.32812529 246.87500012 -136 248 C-135.505 248.61875 -135.01 249.2375 -134.5 249.875 C-133 252 -133 252 -133 254 C-132.34 254 -131.68 254 -131 254 C-131 254.66 -131 255.32 -131 256 C-130.34 256 -129.68 256 -129 256 C-129 256.66 -129 257.32 -129 258 C-127.68 258.66 -126.36 259.32 -125 260 C-125 260.66 -125 261.32 -125 262 C-129.58575931 262.05020622 -134.17135154 262.08609191 -138.75732422 262.10986328 C-140.31073805 262.11979437 -141.86413386 262.13334379 -143.41748047 262.15087891 C-153.46184368 262.26125652 -163.08414876 261.85172606 -173 260 C-173.7744043 259.85651123 -174.54880859 259.71302246 -175.34667969 259.56518555 C-180.43106055 258.45878168 -184.80534843 256.3337807 -189.375 253.9375 C-190.08527344 253.57333984 -190.79554688 253.20917969 -191.52734375 252.83398438 C-193.35495498 251.89590309 -195.17783214 250.94861141 -197 250 C-197.66 249.67 -198.32 249.34 -199 249 C-199 248.34 -199 247.68 -199 247 C-199.72316406 246.76539063 -200.44632813 246.53078125 -201.19140625 246.2890625 C-215.13002822 239.89164213 -222.83623656 222.71113059 -228.078125 209.2265625 C-230.48011974 200.8195809 -231.38918239 192.53691124 -231.375 183.8125 C-231.37411377 182.81798828 -231.37322754 181.82347656 -231.37231445 180.79882812 C-231.19132325 169.39913832 -228.62241214 159.40660701 -224 149 C-223.484375 147.80375 -222.96875 146.6075 -222.4375 145.375 C-218.87604402 138.29382385 -213.04790647 130.11469835 -207 125 C-206.34 125 -205.68 125 -205 125 C-205 124.34 -205 123.68 -205 123 C-202.94677142 121.40963798 -200.90299994 119.94301709 -198.75 118.5 C-198.16347656 118.09652344 -197.57695312 117.69304687 -196.97265625 117.27734375 C-192.30691255 114.10044411 -192.30691255 114.10044411 -189.63671875 113.2265625 C-187.57720883 111.97257692 -187.57720883 111.97257692 -187.34765625 108.4296875 C-187.24055965 106.9122604 -187.14635059 105.393889 -187.0625 103.875 C-185.85379618 89.7654352 -182.57084156 77.86601696 -173 67 C-172.23558594 66.12601562 -171.47117188 65.25203125 -170.68359375 64.3515625 C-160.39797637 53.35602289 -147.35939768 46.32612784 -132.1328125 45.7265625 C-124.99166965 45.610775 -118.05323483 45.84480974 -111 47 C-110.52433594 46.12601563 -110.52433594 46.12601563 -110.0390625 45.234375 C-107.00878433 39.91046087 -103.64805717 35.08427066 -99.75 30.375 C-99.31381348 29.84229492 -98.87762695 29.30958984 -98.42822266 28.76074219 C-97.33361962 27.46491598 -96.17173228 26.22652552 -95 25 C-94.34 25 -93.68 25 -93 25 C-92.67 24.01 -92.34 23.02 -92 22 C-89.90956469 20.17158895 -87.83501415 18.48191802 -85.625 16.8125 C-85.03460938 16.34908203 -84.44421875 15.88566406 -83.8359375 15.40820312 C-79.37867038 12 -79.37867038 12 -76 12 C-76 11.34 -76 10.68 -76 10 C-51.69264802 -1.96876529 -26.65238055 -7.16678483 0 0 Z " fill="#FBFBFA" transform="translate(300,72)"/>
<path d="M0 0 C1.05936768 0.32701904 1.05936768 0.32701904 2.14013672 0.66064453 C28.00007715 8.68657606 53.72891998 22.09968985 75 39 C75 39.66 75 40.32 75 41 C75.56203125 41.2578125 76.1240625 41.515625 76.703125 41.78125 C79.26704579 43.14169777 81.45226365 44.72788962 83.75 46.5 C84.54921875 47.1084375 85.3484375 47.716875 86.171875 48.34375 C86.77515625 48.8903125 87.3784375 49.436875 88 50 C88 50.66 88 51.32 88 52 C88.57524414 52.25072266 89.15048828 52.50144531 89.74316406 52.75976562 C92.30441196 54.16728827 94.04057392 55.78170025 96.109375 57.84375 C96.86347656 58.59527344 97.61757813 59.34679687 98.39453125 60.12109375 C99.17183594 60.90613281 99.94914062 61.69117187 100.75 62.5 C101.54277344 63.28503906 102.33554687 64.07007812 103.15234375 64.87890625 C103.90128906 65.63042969 104.65023438 66.38195312 105.421875 67.15625 C106.10862305 67.84525391 106.79537109 68.53425781 107.50292969 69.24414062 C109 71 109 71 109 73 C109.66 73 110.32 73 111 73 C112.7265625 74.8984375 112.7265625 74.8984375 114.625 77.375 C115.25664062 78.18710938 115.88828125 78.99921875 116.5390625 79.8359375 C118 82 118 82 118 84 C118.66 84 119.32 84 120 84 C121.375 85.66015625 121.375 85.66015625 123 88.0625 C123.61617188 88.97 124.23234375 89.8775 124.8671875 90.8125 C125.57101562 91.864375 126.27484375 92.91625 127 94 C127.83544676 95.22950027 128.67140699 96.45865175 129.5078125 97.6875 C133.99207854 104.30637076 138.28139062 110.91530996 142 118 C142.64310478 119.17656208 143.28778032 120.35226627 143.93359375 121.52734375 C147.27081608 127.63232028 150.52647692 133.67601679 152.953125 140.2109375 C153.76779841 142.38137336 154.64520955 144.5282994 155.546875 146.6640625 C161.14028065 160.05701264 164.67248344 173.89537147 168 188 C168.2786792 189.15580566 168.2786792 189.15580566 168.56298828 190.33496094 C178.07037237 230.62581926 173.39204453 274.94342282 161 314 C160.64832764 315.11084961 160.64832764 315.11084961 160.28955078 316.24414062 C152.64571792 339.95782395 141.16088672 361.58452914 127 382 C126.55849609 382.65597168 126.11699219 383.31194336 125.66210938 383.98779297 C124.49210025 385.69441316 123.25122292 387.35199666 122 389 C121.34 389 120.68 389 120 389 C119.731875 389.7425 119.46375 390.485 119.1875 391.25 C118.04723249 393.89061949 116.90619694 395.85552844 115 398 C114.34 398 113.68 398 113 398 C113 398.66 113 399.32 113 400 C112.34 400 111.68 400 111 400 C110.78085937 400.53496094 110.56171875 401.06992187 110.3359375 401.62109375 C108.53076524 404.83556717 106.12915587 407.38809328 103.625 410.0625 C103.09986816 410.62670654 102.57473633 411.19091309 102.03369141 411.7722168 C98.27619887 415.75917879 94.39540326 419.59125225 90.375 423.3125 C89.61243896 424.02321655 89.61243896 424.02321655 88.83447266 424.74829102 C85.24936446 428 85.24936446 428 83 428 C83 428.66 83 429.32 83 430 C80.9453125 431.69921875 80.9453125 431.69921875 78.125 433.6875 C77.11179687 434.40550781 76.09859375 435.12351562 75.0546875 435.86328125 C74.04664063 436.56839844 73.03859375 437.27351563 72 438 C71.19820313 438.57105469 70.39640625 439.14210938 69.5703125 439.73046875 C67.06142642 441.50865232 64.53142905 443.25406374 62 445 C61.1963501 445.56871826 61.1963501 445.56871826 60.37646484 446.14892578 C51.33204408 452.54322719 42.16590505 457.59092132 32.04492188 462.07519531 C30.11762235 462.94680594 28.22153544 463.86209392 26.328125 464.8046875 C-14.22890018 484.72899026 -62.16197657 489.96129061 -106.64257812 484.29882812 C-108.17096389 484.10508908 -109.7009368 483.92334462 -111.23242188 483.75585938 C-134.11566469 481.24503077 -157.21938905 473.71526652 -178 464 C-178 463.34 -178 462.68 -178 462 C-178.68320313 461.90589844 -179.36640625 461.81179688 -180.0703125 461.71484375 C-183.64492043 460.84263942 -186.66625781 459.3070303 -189.875 457.5625 C-190.52557373 457.21195557 -191.17614746 456.86141113 -191.84643555 456.50024414 C-198.59665111 452.78904454 -204.96672655 448.55689323 -211.29589844 444.17529297 C-212.90915815 443.06265224 -214.53624915 441.97014409 -216.1640625 440.87890625 C-217.07929688 440.25886719 -217.99453125 439.63882812 -218.9375 439 C-219.73027344 438.46375 -220.52304688 437.9275 -221.33984375 437.375 C-222.16162109 436.694375 -222.16162109 436.694375 -223 436 C-223 435.34 -223 434.68 -223 434 C-223.66 433.814375 -224.32 433.62875 -225 433.4375 C-229.26905268 431.39191226 -232.74163706 428.42815357 -236 425 C-236 424.34 -236 423.68 -236 423 C-236.66 423 -237.32 423 -238 423 C-238 422.34 -238 421.68 -238 421 C-239.32 420.34 -240.64 419.68 -242 419 C-242 418.34 -242 417.68 -242 417 C-242.8353125 416.6596875 -242.8353125 416.6596875 -243.6875 416.3125 C-246.66159588 414.62449964 -248.72008865 412.53323483 -251 410 C-251 409.34 -251 408.68 -251 408 C-251.66 408 -252.32 408 -253 408 C-253 407.34 -253 406.68 -253 406 C-253.66 406 -254.32 406 -255 406 C-255 405.34 -255 404.68 -255 404 C-255.66 404 -256.32 404 -257 404 C-258.7265625 402.1015625 -258.7265625 402.1015625 -260.625 399.625 C-261.25664062 398.81289063 -261.88828125 398.00078125 -262.5390625 397.1640625 C-264 395 -264 395 -264 393 C-264.66 393 -265.32 393 -266 393 C-270 387.58823529 -270 387.58823529 -270 385 C-270.66 385 -271.32 385 -272 385 C-273.65329203 382.76034845 -275.18378756 380.52505372 -276.6875 378.1875 C-277.13593262 377.49897949 -277.58436523 376.81045898 -278.04638672 376.10107422 C-278.95184808 374.70868018 -279.85454403 373.31448372 -280.75439453 371.91845703 C-281.79435071 370.31673699 -282.86080846 368.7322639 -283.93359375 367.15234375 C-288.8172124 359.85511219 -292.40908756 352.08629079 -296.02685547 344.11376953 C-296.92935994 342.15343745 -297.86320335 340.21342327 -298.81640625 338.27734375 C-319.95690907 294.81398336 -325.24852831 245.4347144 -318 198 C-317.88785156 197.24187012 -317.77570313 196.48374023 -317.66015625 195.70263672 C-311.88848832 157.73254355 -294.58848048 121.53363457 -272.6875 90.3125 C-272.25469727 89.68754639 -271.82189453 89.06259277 -271.37597656 88.41870117 C-270.30186495 86.90804657 -269.15663823 85.44844092 -268 84 C-267.34 84 -266.68 84 -266 84 C-265.74863281 83.44054687 -265.49726563 82.88109375 -265.23828125 82.3046875 C-262.8038363 77.77370163 -259.24891338 73.96604397 -256 70 C-255.48308594 69.34515625 -254.96617187 68.6903125 -254.43359375 68.015625 C-253.33541277 66.63880108 -252.17432506 65.31248095 -251 64 C-250.34 64 -249.68 64 -249 64 C-248.78085938 63.44570312 -248.56171875 62.89140625 -248.3359375 62.3203125 C-246.58638623 59.28161818 -244.2173521 57.17749081 -241.625 54.875 C-241.09044189 54.39417969 -240.55588379 53.91335937 -240.00512695 53.41796875 C-225.36285346 40.33201373 -210.09066894 28.68787985 -193 19 C-192.41847168 18.66403809 -191.83694336 18.32807617 -191.23779297 17.98193359 C-161.75178218 1.02768405 -128.15830393 -8.39570904 -94.33251953 -10.828125 C-92.07147674 -10.99473314 -89.81616574 -11.19842748 -87.55859375 -11.40625 C-57.95237204 -13.84482853 -28.1773586 -8.8513723 0 0 Z M-172.17089844 28.04003906 C-175.09183917 29.57302611 -178.0848409 30.95611546 -181.0625 32.375 C-188.2135736 35.94645979 -194.7308325 40.25342145 -201.27978516 44.80859375 C-202.8984721 45.92968263 -204.53276466 47.028143 -206.16796875 48.125 C-207.08191406 48.74375 -207.99585938 49.3625 -208.9375 50 C-209.73027344 50.53625 -210.52304688 51.0725 -211.33984375 51.625 C-212.16162109 52.305625 -212.16162109 52.305625 -213 53 C-213 53.66 -213 54.32 -213 55 C-213.74403076 55.25958496 -214.48806152 55.51916992 -215.25463867 55.78662109 C-218.07227596 57.03194411 -219.71585726 58.29524917 -221.92578125 60.4140625 C-222.99795898 61.43306641 -222.99795898 61.43306641 -224.09179688 62.47265625 C-224.82462891 63.18292969 -225.55746094 63.89320312 -226.3125 64.625 C-227.03373047 65.31207031 -227.75496094 65.99914062 -228.49804688 66.70703125 C-230.67844254 68.79160684 -232.84070944 70.89358804 -235 73 C-235.76747559 73.73831055 -236.53495117 74.47662109 -237.32568359 75.23730469 C-238.0573877 75.95047852 -238.7890918 76.66365234 -239.54296875 77.3984375 C-240.20707764 78.04216309 -240.87118652 78.68588867 -241.55541992 79.34912109 C-243.21950679 80.8852417 -243.21950679 80.8852417 -243 83 C-243.66 83 -244.32 83 -245 83 C-245 83.66 -245 84.32 -245 85 C-245.66 85 -246.32 85 -247 85 C-248.81628776 86.94375954 -248.81628776 86.94375954 -250.625 89.375 C-251.25664062 90.18710938 -251.88828125 90.99921875 -252.5390625 91.8359375 C-254.18650808 93.84109879 -254.18650808 93.84109879 -254 96 C-254.66 96 -255.32 96 -256 96 C-257.69893471 98.19739209 -257.69893471 98.19739209 -259.44921875 101.046875 C-260.13306641 102.12066406 -260.81691406 103.19445312 -261.52148438 104.30078125 C-262.0564856 105.152771 -262.0564856 105.152771 -262.60229492 106.02197266 C-263.65943308 107.70530761 -264.72704225 109.38205244 -265.79492188 111.05859375 C-271.99381854 120.84023275 -278.15756024 130.58621204 -282.76171875 141.234375 C-283.7506547 143.4431026 -284.80699767 145.55299531 -285.92578125 147.6953125 C-288.27044041 152.35289448 -289.89767843 157.17146213 -291.5 162.125 C-291.80188232 163.04571289 -292.10376465 163.96642578 -292.41479492 164.91503906 C-308.90063581 215.5984887 -310.32835147 275.23177682 -286.390625 324.14453125 C-284.41909693 328.1928094 -282.627133 332.31700001 -280.8125 336.4375 C-280.13262605 337.97835732 -279.45169634 339.51874939 -278.76953125 341.05859375 C-278.47667236 341.72173584 -278.18381348 342.38487793 -277.88208008 343.06811523 C-276.96776481 345.07059979 -275.99564695 347.03685643 -275 349 C-274.34 349 -273.68 349 -273 349 C-272.81884644 349.87615967 -272.81884644 349.87615967 -272.6340332 350.77001953 C-271.9816934 353.06438677 -271.13034944 354.67278878 -269.85546875 356.6796875 C-269.42556641 357.36160156 -268.99566406 358.04351562 -268.55273438 358.74609375 C-268.10220703 359.44863281 -267.65167969 360.15117187 -267.1875 360.875 C-266.74857422 361.56980469 -266.30964844 362.26460938 -265.85742188 362.98046875 C-264.99153674 364.34684321 -264.12039696 365.70990403 -263.24365234 367.06933594 C-262.43711248 368.3214202 -261.63993382 369.57960375 -260.85400391 370.84472656 C-259.95497853 372.26432807 -258.98413016 373.63801509 -258 375 C-257.34 375 -256.68 375 -256 375 C-255.7525 375.71542969 -255.505 376.43085938 -255.25 377.16796875 C-253.86136405 380.31409706 -252.15536054 382.63810963 -250 385.3125 C-248.948125 386.63701172 -248.948125 386.63701172 -247.875 387.98828125 C-247.25625 388.65214844 -246.6375 389.31601562 -246 390 C-245.34 390 -244.68 390 -244 390 C-243.74347656 390.58523438 -243.48695313 391.17046875 -243.22265625 391.7734375 C-241.89437838 394.19234608 -240.43475199 395.73198872 -238.4375 397.625 C-235.09722222 400.80555556 -235.09722222 400.80555556 -234 403 C-233.34 403 -232.68 403 -232 403 C-232 403.66 -232 404.32 -232 405 C-231.34 405 -230.68 405 -230 405 C-230 405.66 -230 406.32 -230 407 C-229.34 407 -228.68 407 -228 407 C-228 407.66 -228 408.32 -228 409 C-226.26608049 410.60634015 -224.461909 412.1375287 -222.625 413.625 C-221.62726563 414.44226563 -220.62953125 415.25953125 -219.6015625 416.1015625 C-217.26750115 418.19648969 -217.26750115 418.19648969 -215 418 C-215 418.66 -215 419.32 -215 420 C-212.89141007 421.74027728 -210.78232027 423.34896691 -208.5625 424.9375 C-207.88654785 425.42404053 -207.2105957 425.91058105 -206.51416016 426.41186523 C-204.35183868 427.95457267 -202.17846455 429.48018629 -200 431 C-198.98993896 431.70817871 -198.98993896 431.70817871 -197.95947266 432.43066406 C-162.04555489 457.3540998 -118.79429755 469.47812323 -75.35571289 469.26074219 C-72.80265831 469.24995843 -70.2503001 469.26075646 -67.69726562 469.2734375 C-53.10789225 469.28764648 -39.14636664 467.876129 -24.9375 464.375 C-23.87877686 464.11557617 -22.82005371 463.85615234 -21.72924805 463.58886719 C2.61919538 457.42708729 26.35593114 448.17652187 47.27294922 434.15087891 C48.89613832 433.06921176 50.54312739 432.02350445 52.19140625 430.98046875 C60.04653626 425.95195658 67.00435704 420.13379442 74 414 C74.78761719 413.31292969 75.57523437 412.62585938 76.38671875 411.91796875 C77.69599877 410.77328394 79.00230514 409.6251829 80.3046875 408.47265625 C81.8544377 407.12644467 83.45633509 405.84087615 85.0625 404.5625 C89.86646444 400.37180762 94.33920451 395.8563587 97 390 C97.66 390 98.32 390 99 390 C99 389.34 99 388.68 99 388 C99.66 388 100.32 388 101 388 C102.52789236 386.39292424 102.52789236 386.39292424 104.08984375 384.2578125 C104.70400146 383.44795898 105.31815918 382.63810547 105.95092773 381.80371094 C106.60649658 380.91973633 107.26206543 380.03576172 107.9375 379.125 C108.61047119 378.22040039 109.28344238 377.31580078 109.97680664 376.38378906 C119.34661295 363.62348243 127.28533225 350.2394674 134.07373047 335.94677734 C135.0168405 333.96460565 135.97816009 331.99198459 136.94140625 330.01953125 C139.86588404 323.97119655 142.5780535 318.0015998 144.328125 311.4921875 C145.10074828 308.62629415 146.02215807 305.82347781 146.9375 303 C149.23923777 295.53919481 150.97126887 287.9570949 152.52709961 280.30932617 C152.84364219 278.76354594 153.18061612 277.22181613 153.53735352 275.68481445 C155.34571999 267.20712006 155.45876057 258.7027715 155.63305664 250.0690918 C155.68689287 247.46684641 155.75744395 244.86545263 155.83007812 242.26367188 C156.21671662 226.8378014 156.0364909 211.63693935 152.75 196.5 C152.41621338 194.90937744 152.41621338 194.90937744 152.07568359 193.28662109 C147.39487989 171.45276646 140.61850237 150.6932539 130 131 C129.09507812 129.2984375 129.09507812 129.2984375 128.171875 127.5625 C120.25747257 113.19686198 110.91185941 99.65708916 100.046875 87.37109375 C98 85 98 85 97 83 C96.34 83 95.68 83 95 83 C95 82.34 95 81.68 95 81 C94.34 81 93.68 81 93 81 C92.6596875 80.1646875 92.6596875 80.1646875 92.3125 79.3125 C90.62449964 76.33840412 88.53323483 74.27991135 86 72 C85.34 72 84.68 72 84 72 C84 71.34 84 70.68 84 70 C83.34 70 82.68 70 82 70 C82 69.34 82 68.68 82 68 C81.34 68 80.68 68 80 68 C80 67.34 80 66.68 80 66 C78.0030517 64.10083749 78.0030517 64.10083749 75.375 62.0625 C73.86099609 60.8559375 73.86099609 60.8559375 72.31640625 59.625 C71.50260498 58.98304687 71.50260498 58.98304687 70.67236328 58.328125 C69.00653719 57.00519158 67.35962861 55.66146726 65.71484375 54.3125 C52.22352532 43.34285014 37.49527686 34.81609774 22 27 C20.40478516 26.18402344 20.40478516 26.18402344 18.77734375 25.3515625 C-2.85635093 14.79990238 -28.02988875 7.9676957 -52 6 C-53.27101563 5.89042969 -54.54203125 5.78085937 -55.8515625 5.66796875 C-95.27195692 2.65724616 -137.10491333 9.23175297 -172.17089844 28.04003906 Z " fill="#D3E8ED" transform="translate(322,13)"/>
<path d="M0 0 C0.65838867 0.17160645 1.31677734 0.34321289 1.99511719 0.52001953 C19.43335524 5.14623773 36.4534611 14.83850964 48 29 C48 29.66 48 30.32 48 31 C48.99 31.33 49.98 31.66 51 32 C63.5134141 46.98699596 70.61358777 65.59022884 72 85 C73.051875 85.061875 74.10375 85.12375 75.1875 85.1875 C90.61876852 87.17074402 105.17541472 96.27753345 116 107 C116.86625 107.804375 117.7325 108.60875 118.625 109.4375 C124.18483187 115.43626597 129.11477325 121.6215673 132.89453125 128.89453125 C133.98610392 131.06213755 133.98610392 131.06213755 135.47265625 133.2109375 C137.51200686 136.93496904 138.53170469 140.72614007 139.625 144.8125 C139.8415625 145.58142578 140.058125 146.35035156 140.28125 147.14257812 C147.00853145 171.74698714 143.20224654 198.32739703 130.65625 220.37890625 C118.329057 239.88727065 99.80333867 253.82576505 77.57446289 259.94262695 C63.63668729 262.73129643 49.64049671 262.34792267 35.48254395 262.20599365 C32.03594575 262.17482553 28.58927782 262.16150243 25.14257812 262.14648438 C18.42820893 262.11372734 11.71414258 262.06376977 5 262 C5.66 260.68 6.32 259.36 7 258 C7.66 258 8.32 258 9 258 C9 257.34 9 256.68 9 256 C9.639375 255.896875 10.27875 255.79375 10.9375 255.6875 C11.618125 255.460625 12.29875 255.23375 13 255 C13.33 254.01 13.66 253.02 14 252 C15.88612224 251.48850922 17.77806507 250.98311797 19.69921875 250.625 C22.14365465 250.06564335 22.14365465 250.06564335 24.62988281 248.48632812 C28.5875824 246.7408576 31.98115245 246.57637616 36.22265625 246.59375 C37.39555458 246.57749573 37.39555458 246.57749573 38.59214783 246.56091309 C41.08234893 246.52683151 43.57209724 246.51111679 46.0625 246.5 C66.47746693 246.40748808 86.83759689 243.78461276 102.7265625 229.44140625 C103.82819668 228.30433939 104.91602253 227.1539115 106 226 C106.66 226 107.32 226 108 226 C108.33 225.01 108.66 224.02 109 223 C109.66 223 110.32 223 111 223 C111.25136719 222.47277344 111.50273437 221.94554687 111.76171875 221.40234375 C113.00686511 218.98668126 114.37526783 216.6648716 115.76708984 214.33154297 C127.2268529 194.939333 131.34033859 174.11519797 125.90234375 152.0625 C123.83891743 145.05935612 120.49351467 138.96190714 116.9375 132.625 C116.5969458 132.01720703 116.2563916 131.40941406 115.90551758 130.78320312 C114.18996847 127.80051078 112.46697547 125.38243737 110 123 C110 122.34 110 121.68 110 121 C109.34 121 108.68 121 108 121 C105.875 119.125 105.875 119.125 104 117 C104 116.34 104 115.68 104 115 C103.43796875 114.72929687 102.8759375 114.45859375 102.296875 114.1796875 C99.87067371 112.93357732 97.57346639 111.55311788 95.25 110.125 C83.39900757 103.02818476 71.86792344 99.10992329 58 98 C57.96036133 97.42668945 57.92072266 96.85337891 57.87988281 96.26269531 C56.07540583 71.4087665 48.42661062 48.82852288 29 32 C8.00817832 15.58821214 -14.22753466 10.46875805 -40.51757812 13.26806641 C-51.55506933 15.0114771 -63.35698323 20.01773742 -72.328125 26.74609375 C-74 28 -74 28 -76 28 C-76 28.66 -76 29.32 -76 30 C-77.40436326 30.92482459 -78.81080295 31.84662372 -80.2265625 32.75390625 C-91.68961695 40.80834318 -97.5500117 53.57601452 -103 66 C-104.62566606 65.52309796 -106.25051311 65.04340334 -107.875 64.5625 C-108.77992188 64.29566406 -109.68484375 64.02882813 -110.6171875 63.75390625 C-113 63 -113 63 -115 62 C-118.70228154 61.73023782 -122.41400413 61.76832591 -126.125 61.75 C-127.1459375 61.729375 -128.166875 61.70875 -129.21875 61.6875 C-137.40566967 61.64540787 -143.49144621 63.00949304 -150.375 67.6875 C-153.79941003 70 -153.79941003 70 -156 70 C-156 70.66 -156 71.32 -156 72 C-157.875 74.125 -157.875 74.125 -160 76 C-160.66 76 -161.32 76 -162 76 C-162.2784375 76.56460938 -162.556875 77.12921875 -162.84375 77.7109375 C-163.61053803 79.22897056 -164.40216548 80.73472539 -165.21875 82.2265625 C-171.68884345 94.33826183 -172.56273245 107.54565461 -170 121 C-170.73863281 121.27972656 -171.47726563 121.55945313 -172.23828125 121.84765625 C-189.74873215 128.76728805 -203.03424266 139.52955992 -211.05957031 156.81591797 C-214.78238987 165.46190544 -215.49314366 173.44918967 -215.4375 182.8125 C-215.45748047 183.99392578 -215.47746094 185.17535156 -215.49804688 186.39257812 C-215.49180684 197.78063921 -212.8087473 207.77158414 -207 217.5625 C-206.34 218.69816406 -205.68 219.83382812 -205 221.00390625 C-203.19419573 223.7090857 -201.30272727 225.73325284 -199 228 C-199 228.66 -199 229.32 -199 230 C-198.45859375 230.24105469 -197.9171875 230.48210937 -197.359375 230.73046875 C-194.41716442 232.31361186 -191.91651166 234.29908066 -189.25 236.3125 C-176.08373247 245.56136221 -163.35023327 246.62610733 -147.58374023 246.4609375 C-137.72329171 246.4827421 -137.72329171 246.4827421 -134.66796875 249.40625 C-133 252 -133 252 -133 254 C-132.34 254 -131.68 254 -131 254 C-131 254.66 -131 255.32 -131 256 C-130.34 256 -129.68 256 -129 256 C-129 256.66 -129 257.32 -129 258 C-127.68 258.66 -126.36 259.32 -125 260 C-125 260.66 -125 261.32 -125 262 C-129.58575931 262.05020622 -134.17135154 262.08609191 -138.75732422 262.10986328 C-140.31073805 262.11979437 -141.86413386 262.13334379 -143.41748047 262.15087891 C-153.46184368 262.26125652 -163.08414876 261.85172606 -173 260 C-173.7744043 259.85651123 -174.54880859 259.71302246 -175.34667969 259.56518555 C-180.43106055 258.45878168 -184.80534843 256.3337807 -189.375 253.9375 C-190.08527344 253.57333984 -190.79554688 253.20917969 -191.52734375 252.83398438 C-193.35495498 251.89590309 -195.17783214 250.94861141 -197 250 C-197.66 249.67 -198.32 249.34 -199 249 C-199 248.34 -199 247.68 -199 247 C-199.72316406 246.76539063 -200.44632813 246.53078125 -201.19140625 246.2890625 C-215.13002822 239.89164213 -222.83623656 222.71113059 -228.078125 209.2265625 C-230.48011974 200.8195809 -231.38918239 192.53691124 -231.375 183.8125 C-231.37411377 182.81798828 -231.37322754 181.82347656 -231.37231445 180.79882812 C-231.19132325 169.39913832 -228.62241214 159.40660701 -224 149 C-223.484375 147.80375 -222.96875 146.6075 -222.4375 145.375 C-218.87604402 138.29382385 -213.04790647 130.11469835 -207 125 C-206.34 125 -205.68 125 -205 125 C-205 124.34 -205 123.68 -205 123 C-202.94677142 121.40963798 -200.90299994 119.94301709 -198.75 118.5 C-198.16347656 118.09652344 -197.57695312 117.69304687 -196.97265625 117.27734375 C-192.30691255 114.10044411 -192.30691255 114.10044411 -189.63671875 113.2265625 C-187.57720883 111.97257692 -187.57720883 111.97257692 -187.34765625 108.4296875 C-187.24055965 106.9122604 -187.14635059 105.393889 -187.0625 103.875 C-185.85379618 89.7654352 -182.57084156 77.86601696 -173 67 C-172.23558594 66.12601562 -171.47117188 65.25203125 -170.68359375 64.3515625 C-160.39797637 53.35602289 -147.35939768 46.32612784 -132.1328125 45.7265625 C-124.99166965 45.610775 -118.05323483 45.84480974 -111 47 C-110.52433594 46.12601563 -110.52433594 46.12601563 -110.0390625 45.234375 C-107.00878433 39.91046087 -103.64805717 35.08427066 -99.75 30.375 C-99.31381348 29.84229492 -98.87762695 29.30958984 -98.42822266 28.76074219 C-97.33361962 27.46491598 -96.17173228 26.22652552 -95 25 C-94.34 25 -93.68 25 -93 25 C-92.67 24.01 -92.34 23.02 -92 22 C-89.90956469 20.17158895 -87.83501415 18.48191802 -85.625 16.8125 C-85.03460938 16.34908203 -84.44421875 15.88566406 -83.8359375 15.40820312 C-79.37867038 12 -79.37867038 12 -76 12 C-76 11.34 -76 10.68 -76 10 C-51.69264802 -1.96876529 -26.65238055 -7.16678483 0 0 Z " fill="#7CAEC6" transform="translate(300,72)"/>
<path d="M0 0 C2.99220268 1.36370299 5.29026529 2.94908083 7.75 5.125 C8.36359375 5.66382813 8.9771875 6.20265625 9.609375 6.7578125 C10.06828125 7.16773438 10.5271875 7.57765625 11 8 C10.72404064 12.55332944 8.76319595 14.73661727 5.82421875 17.953125 C2.94935226 21.17888526 0.36747413 24.6345443 -2.265625 28.05859375 C-2.83796875 28.69925781 -3.4103125 29.33992188 -4 30 C-4.66 30 -5.32 30 -6 30 C-6.38865234 30.84884766 -6.38865234 30.84884766 -6.78515625 31.71484375 C-8.120718 34.22707405 -9.67882623 36.32728237 -11.4375 38.5625 C-12.33275391 39.70912109 -12.33275391 39.70912109 -13.24609375 40.87890625 C-15 43 -15 43 -16.59765625 44.58984375 C-18.23987674 46.1503076 -18.23987674 46.1503076 -20 49 C-20.66 49 -21.32 49 -22 49 C-22.22816406 49.53753906 -22.45632813 50.07507813 -22.69140625 50.62890625 C-24.40149239 53.72748024 -26.62965372 56.27786007 -28.9375 58.9375 C-29.93235321 60.09890562 -30.92714307 61.26036551 -31.921875 62.421875 C-32.43169922 63.01419922 -32.94152344 63.60652344 -33.46679688 64.21679688 C-35.88573754 67.03016353 -38.28832034 69.85727699 -40.6875 72.6875 C-41.14753418 73.22930908 -41.60756836 73.77111816 -42.08154297 74.3293457 C-44.80439588 77.54792748 -47.45594121 80.81184395 -50.0625 84.125 C-52.94308487 87.76861454 -55.97708377 91.20967509 -59.125 94.625 C-62.41131939 98.19513788 -65.41153456 101.7877623 -68.25 105.71484375 C-71.15860951 109.51291643 -74.32798338 113.08827451 -77.45849609 116.70385742 C-81.18483002 121.01791734 -84.77976395 125.41434578 -88.28125 129.9140625 C-90 132 -90 132 -92.125 134.1171875 C-94.11502572 135.96455348 -94.11502572 135.96455348 -95.5 138.5 C-97.05889736 141.09816226 -98.86871183 142.86871183 -101 145 C-101.33 145.99 -101.66 146.98 -102 148 C-82.93181486 147.36650548 -68.73807938 141.3360478 -54.375 128.91796875 C-52.29223596 127.23599976 -50.43930982 126.06719805 -48 125 C-49.10281127 123.72799029 -50.20730769 122.45744147 -51.3125 121.1875 C-51.92738281 120.47980469 -52.54226563 119.77210938 -53.17578125 119.04296875 C-54.91134615 117.00269231 -54.91134615 117.00269231 -56.79296875 115.48828125 C-58 114 -58 114 -57.94140625 112.109375 C-56.70394166 109.33663276 -54.99789627 107.47391978 -52.9375 105.25 C-52.20402344 104.45078125 -51.47054687 103.6515625 -50.71484375 102.828125 C-49.86599609 101.92320312 -49.86599609 101.92320312 -49 101 C-45.97591064 102.33490137 -44.95220706 103.06325536 -42.875 105.8125 C-38.8261026 110.97484418 -31.33713293 114.36075839 -24.90625 115.30859375 C-18.20465057 115.66760801 -14.03971063 113.87452891 -8.34765625 110.41015625 C-6 109 -6 109 -3 108 C-1.79117904 105.99983534 -1.79117904 105.99983534 -1 104 C3 104 3 104 5.0625 105.8125 C5.701875 106.534375 6.34125 107.25625 7 108 C7.556875 108.474375 8.11375 108.94875 8.6875 109.4375 C10.57187661 111.68080549 11 113.06316262 11 116 C8.875 118.5625 8.875 118.5625 6 121 C5.154375 121.7425 4.30875 122.485 3.4375 123.25 C1.16971819 124.87815105 -0.275034 125.59630133 -3 126 C-3 126.66 -3 127.32 -3 128 C-9.39958205 130.8242287 -14.7832695 131.54326415 -21.75 131.5 C-22.71631348 131.49935547 -23.68262695 131.49871094 -24.67822266 131.49804688 C-32.37910032 131.33769275 -38.29333721 129.96174173 -45 126 C-45 126.66 -45 127.32 -45 128 C-45.66 128 -46.32 128 -47 128 C-47.144375 128.9075 -47.28875 129.815 -47.4375 130.75 C-47.86464992 133.21797731 -48.3741273 135.58066016 -49 138 C-30.64286361 147.9096046 -13.11863592 149.81679394 7 144 C10.81397908 142.85293862 13.94761414 141.59825977 17.25 139.375 C20.79190751 137 20.79190751 137 23 137 C23 136.34 23 135.68 23 135 C24.64463643 133.96416758 26.31580634 132.97019043 28 132 C35.78253124 126.0462261 41.78845002 118.8707043 46 110 C46.66 110 47.32 110 48 110 C48.33 108.35 48.66 106.7 49 105 C49.33 105 49.66 105 50 105 C50.43437239 113.17263604 49.28265982 120.16775437 47 128 C46.63220878 129.28628586 46.26502954 130.57274686 45.8984375 131.859375 C45.45371094 133.41398437 45.45371094 133.41398437 45 135 C62.40248543 135.58954468 77.73129749 132.56295529 91.3125 120.6875 C94.04301603 118.12765757 94.04301603 118.12765757 96 115 C96.66 115 97.32 115 98 115 C98.2475 114.443125 98.495 113.88625 98.75 113.3125 C100 111 100 111 101.8125 108.875 C109.4376409 98.85338625 111.29720665 88.29888364 112 76 C112.33 76 112.66 76 113 76 C117.67967576 95.39801079 111.63999083 115.5841761 102.046875 132.4296875 C98.07932718 138.69341457 93.85233537 143.48789411 88 148 C87.32453125 148.58265625 86.6490625 149.1653125 85.953125 149.765625 C73.51014833 160.21045943 57.65491972 165.08703353 41.6015625 165.17578125 C39.97134122 165.19897676 38.34113283 165.22309399 36.7109375 165.24804688 C34.16788009 165.28310831 31.62530079 165.31249841 29.08203125 165.32592773 C26.60880273 165.34150524 24.1369279 165.38176098 21.6640625 165.42578125 C20.91484528 165.42387283 20.16562805 165.42196442 19.39370728 165.41999817 C14.46330287 165.53279961 11.05632083 166.62685664 6.7749939 169.08415222 C4.28637791 170.36820927 1.74949316 170.60721526 -1 171 C-1.66 171.66 -2.32 172.32 -3 173 C-11.10376773 173.54940798 -18.99590453 172.15374349 -27 171 C-27.33 177.93 -27.66 184.86 -28 192 C-32.8680699 191.02638602 -36.24194446 189.39015353 -40.4375 186.9375 C-41.13037109 186.53990479 -41.82324219 186.14230957 -42.53710938 185.73266602 C-43.97544321 184.90667107 -45.41211827 184.07778132 -46.84716797 183.24609375 C-49.59795005 181.65389691 -52.35951046 180.08098836 -55.12133789 178.50805664 C-57.75021385 177.00999022 -60.37518457 175.5051676 -63 174 C-63.60585937 174.36351562 -64.21171875 174.72703125 -64.8359375 175.1015625 C-66.60772834 176.164637 -68.37989337 177.22708801 -70.15234375 178.2890625 C-71.93900476 179.36252961 -73.72324822 180.44004182 -75.50390625 181.5234375 C-91.90944882 191.4773622 -91.90944882 191.4773622 -98 193 C-98 186.07 -98 179.14 -98 172 C-101.56255095 171.97298824 -105.12489629 171.95315488 -108.6875 171.9375 C-109.69490234 171.92912109 -110.70230469 171.92074219 -111.74023438 171.91210938 C-112.71669922 171.90888672 -113.69316406 171.90566406 -114.69921875 171.90234375 C-115.59471436 171.89710693 -116.49020996 171.89187012 -117.4128418 171.88647461 C-120.03276538 171.91964545 -120.03276538 171.91964545 -122.64379883 172.63110352 C-125 173 -125 173 -128 171 C-128 170.34 -128 169.68 -128 169 C-128.66 169 -129.32 169 -130 169 C-130 168.34 -130 167.68 -130 167 C-130.66 167 -131.32 167 -132 167 C-132.99 165.02 -133.98 163.04 -135 161 C-134.57589844 160.52691406 -134.15179688 160.05382812 -133.71484375 159.56640625 C-129.76430267 155.11227972 -126.05157877 150.54936024 -122.48046875 145.78515625 C-121 144 -121 144 -119 143 C-118.71125 142.236875 -118.4225 141.47375 -118.125 140.6875 C-116.85085131 137.64370035 -115.33491565 136.30530621 -113 134 C-111.14886398 131.64116845 -109.3674599 129.23979288 -107.5859375 126.828125 C-107.06257813 126.22484375 -106.53921875 125.6215625 -106 125 C-105.34 125 -104.68 125 -104 125 C-103.71125 124.401875 -103.4225 123.80375 -103.125 123.1875 C-102 121 -102 121 -100 118 C-99.34 118 -98.68 118 -98 118 C-97.34 116.35 -96.68 114.7 -96 113 C-95.34 113 -94.68 113 -94 113 C-94 112.34 -94 111.68 -94 111 C-93.34 110.67 -92.68 110.34 -92 110 C-91.57976562 109.29230469 -91.15953125 108.58460938 -90.7265625 107.85546875 C-88.60465771 104.34616468 -86.05995093 101.39949437 -83.375 98.3125 C-79.82667175 94.40798041 -79.82667175 94.40798041 -77 90 C-76.34 90 -75.68 90 -75 90 C-74.63455078 89.17242187 -74.63455078 89.17242187 -74.26171875 88.328125 C-72.73152027 85.50460087 -70.86367375 83.22129368 -68.8125 80.75 C-68.01070313 79.78320312 -67.20890625 78.81640625 -66.3828125 77.8203125 C-63.78791112 74.74897021 -61.15450474 71.71649271 -58.48828125 68.70703125 C-57.24202874 67.27760252 -56.05122766 65.80008204 -54.875 64.3125 C-53 62 -53 62 -50.4375 59.5 C-47.91778624 57.10760377 -47.91778624 57.10760377 -46.3125 54.1875 C-45.879375 53.465625 -45.44625 52.74375 -45 52 C-44.34 52 -43.68 52 -43 52 C-42.72615479 51.40775635 -42.45230957 50.8155127 -42.17016602 50.20532227 C-41.04182286 48.07882035 -39.86920306 46.50894637 -38.27734375 44.71484375 C-37.74343018 44.10745361 -37.2095166 43.50006348 -36.65942383 42.87426758 C-36.09118896 42.23513428 -35.5229541 41.59600098 -34.9375 40.9375 C-33.75143564 39.58696283 -32.56654474 38.23539422 -31.3828125 36.8828125 C-30.80305664 36.22055664 -30.22330078 35.55830078 -29.62597656 34.87597656 C-26.73585404 31.54148686 -23.9627899 28.11432534 -21.18359375 24.6875 C-6 6 -6 6 0 0 Z " fill="#CDE5ED" transform="translate(315,154)"/>
<path d="M0 0 C2.99220268 1.36370299 5.29026529 2.94908083 7.75 5.125 C8.36359375 5.66382813 8.9771875 6.20265625 9.609375 6.7578125 C10.06828125 7.16773438 10.5271875 7.57765625 11 8 C10.72404064 12.55332944 8.76319595 14.73661727 5.82421875 17.953125 C2.94935226 21.17888526 0.36747413 24.6345443 -2.265625 28.05859375 C-2.83796875 28.69925781 -3.4103125 29.33992188 -4 30 C-4.66 30 -5.32 30 -6 30 C-6.38865234 30.84884766 -6.38865234 30.84884766 -6.78515625 31.71484375 C-8.120718 34.22707405 -9.67882623 36.32728237 -11.4375 38.5625 C-12.33275391 39.70912109 -12.33275391 39.70912109 -13.24609375 40.87890625 C-15 43 -15 43 -16.59765625 44.58984375 C-18.23987674 46.1503076 -18.23987674 46.1503076 -20 49 C-20.66 49 -21.32 49 -22 49 C-22.22816406 49.53753906 -22.45632813 50.07507813 -22.69140625 50.62890625 C-24.40149239 53.72748024 -26.62965372 56.27786007 -28.9375 58.9375 C-29.93235321 60.09890562 -30.92714307 61.26036551 -31.921875 62.421875 C-32.43169922 63.01419922 -32.94152344 63.60652344 -33.46679688 64.21679688 C-35.88573754 67.03016353 -38.28832034 69.85727699 -40.6875 72.6875 C-41.14753418 73.22930908 -41.60756836 73.77111816 -42.08154297 74.3293457 C-44.80439588 77.54792748 -47.45594121 80.81184395 -50.0625 84.125 C-52.94308487 87.76861454 -55.97708377 91.20967509 -59.125 94.625 C-62.41131939 98.19513788 -65.41153456 101.7877623 -68.25 105.71484375 C-71.15860951 109.51291643 -74.32798338 113.08827451 -77.45849609 116.70385742 C-81.18483002 121.01791734 -84.77976395 125.41434578 -88.28125 129.9140625 C-90 132 -90 132 -92.13671875 134.12890625 C-94.09547417 135.93127186 -94.09547417 135.93127186 -95.3125 138.3125 C-97.32164347 141.512247 -99.7501379 143.85508901 -102.4765625 146.44921875 C-104.09913693 147.94179261 -104.09913693 147.94179261 -105 150 C-105.66 150 -106.32 150 -107 150 C-107.268125 150.5775 -107.53625 151.155 -107.8125 151.75 C-109.02929189 154.05550043 -110.30333879 156.02056192 -112 158 C-112.66 158 -113.32 158 -114 158 C-114.25523437 158.55171875 -114.51046875 159.1034375 -114.7734375 159.671875 C-116.19302074 162.36637058 -117.86132254 164.76778728 -119.625 167.25 C-120.25664062 168.14203125 -120.88828125 169.0340625 -121.5390625 169.953125 C-122.26222656 170.96632813 -122.26222656 170.96632813 -123 172 C-124.65 171.67 -126.3 171.34 -128 171 C-128 170.34 -128 169.68 -128 169 C-128.66 169 -129.32 169 -130 169 C-130 168.34 -130 167.68 -130 167 C-130.66 167 -131.32 167 -132 167 C-132.99 165.02 -133.98 163.04 -135 161 C-134.57589844 160.52691406 -134.15179688 160.05382812 -133.71484375 159.56640625 C-129.76430267 155.11227972 -126.05157877 150.54936024 -122.48046875 145.78515625 C-121 144 -121 144 -119 143 C-118.71125 142.236875 -118.4225 141.47375 -118.125 140.6875 C-116.85085131 137.64370035 -115.33491565 136.30530621 -113 134 C-111.14886398 131.64116845 -109.3674599 129.23979288 -107.5859375 126.828125 C-107.06257813 126.22484375 -106.53921875 125.6215625 -106 125 C-105.34 125 -104.68 125 -104 125 C-103.71125 124.401875 -103.4225 123.80375 -103.125 123.1875 C-102 121 -102 121 -100 118 C-99.34 118 -98.68 118 -98 118 C-97.34 116.35 -96.68 114.7 -96 113 C-95.34 113 -94.68 113 -94 113 C-94 112.34 -94 111.68 -94 111 C-93.34 110.67 -92.68 110.34 -92 110 C-91.57976562 109.29230469 -91.15953125 108.58460938 -90.7265625 107.85546875 C-88.60465771 104.34616468 -86.05995093 101.39949437 -83.375 98.3125 C-79.82667175 94.40798041 -79.82667175 94.40798041 -77 90 C-76.34 90 -75.68 90 -75 90 C-74.63455078 89.17242187 -74.63455078 89.17242187 -74.26171875 88.328125 C-72.73152027 85.50460087 -70.86367375 83.22129368 -68.8125 80.75 C-68.01070313 79.78320312 -67.20890625 78.81640625 -66.3828125 77.8203125 C-63.78791112 74.74897021 -61.15450474 71.71649271 -58.48828125 68.70703125 C-57.24202874 67.27760252 -56.05122766 65.80008204 -54.875 64.3125 C-53 62 -53 62 -50.4375 59.5 C-47.91778624 57.10760377 -47.91778624 57.10760377 -46.3125 54.1875 C-45.879375 53.465625 -45.44625 52.74375 -45 52 C-44.34 52 -43.68 52 -43 52 C-42.72615479 51.40775635 -42.45230957 50.8155127 -42.17016602 50.20532227 C-41.04182286 48.07882035 -39.86920306 46.50894637 -38.27734375 44.71484375 C-37.74343018 44.10745361 -37.2095166 43.50006348 -36.65942383 42.87426758 C-36.09118896 42.23513428 -35.5229541 41.59600098 -34.9375 40.9375 C-33.75143564 39.58696283 -32.56654474 38.23539422 -31.3828125 36.8828125 C-30.80305664 36.22055664 -30.22330078 35.55830078 -29.62597656 34.87597656 C-26.73585404 31.54148686 -23.9627899 28.11432534 -21.18359375 24.6875 C-6 6 -6 6 0 0 Z " fill="#F2CE7E" transform="translate(315,154)"/>
<path d="M0 0 C0.33 0 0.66 0 1 0 C1.08636719 0.58265625 1.17273438 1.1653125 1.26171875 1.765625 C3.98216858 17.63907536 11.79515642 31.70970269 24.640625 41.51171875 C27.02675919 43.01687956 29.35026625 44.04628378 32 45 C32 45.66 32 46.32 32 47 C41.97589977 50.03614341 51.17541681 51.29006024 61.625 51.125 C62.72457031 51.11597656 63.82414062 51.10695313 64.95703125 51.09765625 C67.63825758 51.07434124 70.31900607 51.0416204 73 51 C72.566875 50.04222656 72.13375 49.08445312 71.6875 48.09765625 C67.28470838 37.78000316 66.25484355 29.14974835 67 18 C70.09358266 20.06238844 71.02731814 21.67693629 72.765625 24.859375 C74.23435858 27.4064193 75.83974526 29.82347383 77.5 32.25 C78.0671875 33.08015625 78.634375 33.9103125 79.21875 34.765625 C80.97078588 36.96335422 82.76446278 38.33315207 85 40 C85 40.66 85 41.32 85 42 C85.66 42 86.32 42 87 42 C87 42.66 87 43.32 87 44 C87.53625 44.2475 88.0725 44.495 88.625 44.75 C91 46 91 46 93.9375 48 C96.60894361 49.74461623 99.00723301 50.9437293 102 52 C102 52.66 102 53.32 102 54 C103.45736087 54.19491452 104.91594593 54.38069358 106.375 54.5625 C107.18710938 54.66691406 107.99921875 54.77132812 108.8359375 54.87890625 C111.04899186 55.18237328 111.04899186 55.18237328 113 54 C111.74883038 57.75350885 109.82680413 59.24981396 107 62 C105.36885095 63.85157459 103.7641212 65.72677945 102.1875 67.625 C101.39730469 68.56601562 100.60710937 69.50703125 99.79296875 70.4765625 C97.71039643 72.89166402 97.71039643 72.89166402 98 76 C98.33 76.66 98.66 77.32 99 78 C98.484375 77.67 97.96875 77.34 97.4375 77 C92.5733537 75.0044528 88.39640631 75.78907726 83.609375 77.51953125 C77.17259115 79.49505542 71.04830824 79.30312654 64.375 79 C63.1389502 78.94730957 61.90290039 78.89461914 60.62939453 78.84033203 C46.36400989 78.04521223 35.34254081 75.04023736 24 66 C22.7932975 65.2473789 21.58508675 64.49716766 20.375 63.75 C9.6739258 56.04522658 2.34147353 40.68858438 0 28 C-0.33119852 23.09444163 -0.28684327 18.22617081 -0.1875 13.3125 C-0.17396484 12.02666016 -0.16042969 10.74082031 -0.14648438 9.41601562 C-0.11147556 6.27689145 -0.06237058 3.13867939 0 0 Z " fill="#CEE6ED" transform="translate(84,241)"/>
<path d="M0 0 C26.4 0 52.8 0 80 0 C78.74325117 3.77024649 76.8413389 5.22180196 74 8 C73.6175412 8.58600479 73.2350824 9.17200958 72.84103394 9.77577209 C70.73282527 12.88771518 69.15443276 14.72512142 65.41729736 15.61495972 C62.19666497 15.8102591 59.04527557 15.78685555 55.8203125 15.68359375 C54.6524118 15.67368912 53.48451111 15.66378448 52.28121948 15.65357971 C48.56118737 15.61448158 44.844136 15.52665737 41.125 15.4375 C38.59900103 15.40238072 36.07295568 15.37044281 33.546875 15.34179688 C27.36343973 15.26473254 21.18222471 15.14397135 15 15 C15 21.6 15 28.2 15 35 C25.89 35 36.78 35 48 35 C47.00616015 38.97535941 46.03333643 40.60623307 43.5625 43.75 C42.94503906 44.54921875 42.32757813 45.3484375 41.69140625 46.171875 C41.13324219 46.77515625 40.57507813 47.3784375 40 48 C39.34 48 38.68 48 38 48 C37.67 48.99 37.34 49.98 37 51 C29.74 51 22.48 51 15 51 C15.05800781 52.89105469 15.11601562 54.78210938 15.17578125 56.73046875 C15.22268035 59.21612116 15.26818034 61.70180026 15.3125 64.1875 C15.3753418 66.05631836 15.3753418 66.05631836 15.43945312 67.96289062 C15.56397233 77.25202364 15.56397233 77.25202364 12.60546875 81.17578125 C11.74566406 81.77777344 10.88585937 82.37976563 10 83 C9.34 83.99 8.68 84.98 8 86 C7.34 86 6.68 86 6 86 C5.7525 86.5775 5.505 87.155 5.25 87.75 C4 90 4 90 0 94 C0 62.98 0 31.96 0 0 Z " fill="#F2CD7D" transform="translate(192,181)"/>
<path d="M0 0 C1.75 1.875 1.75 1.875 1.75 3.875 C2.74 4.205 3.73 4.535 4.75 4.875 C4.42 5.865 4.09 6.855 3.75 7.875 C3.09 7.875 2.43 7.875 1.75 7.875 C1.5025 8.4525 1.255 9.03 1 9.625 C-0.4627149 12.25788682 -1.88826769 13.99950669 -4.25 15.875 C-8.15242147 15.875 -11.11731812 12.96345459 -14.25 10.875 C-18.53522532 9.16090987 -23.8324577 9.09313612 -28.21875 10.51171875 C-29.9182595 11.24985317 -31.58625806 12.05944023 -33.25 12.875 C-34.24 13.205 -35.23 13.535 -36.25 13.875 C-36.85061233 15.77678785 -36.85061233 15.77678785 -37.25 17.875 C-37.91 18.865 -38.57 19.855 -39.25 20.875 C-40.78354917 28.55427629 -40.31612387 34.72577059 -37.25 41.875 C-36.92 42.865 -36.59 43.855 -36.25 44.875 C-34.46771064 46.01709817 -34.46771064 46.01709817 -32.25 46.875 C-31.48945313 47.21660156 -30.72890625 47.55820312 -29.9453125 47.91015625 C-24.93985232 49.70196591 -19.02969344 50.01057636 -14.05078125 47.9765625 C-12.41077182 47.00699718 -10.82481537 45.94721472 -9.25 44.875 C-8.59 44.875 -7.93 44.875 -7.25 44.875 C-7.25 44.215 -7.25 43.555 -7.25 42.875 C-3.58939179 43.46036753 -1.70464836 44.958239 1 47.4375 C2.05960937 48.39849609 2.05960937 48.39849609 3.140625 49.37890625 C3.93726563 50.11947266 3.93726563 50.11947266 4.75 50.875 C3.99847221 55.12754749 2.24182539 56.78925563 -1.0625 59.4140625 C-10.19132597 65.51081413 -20.61004245 66.10818808 -31.25 64.875 C-39.84240505 62.98175821 -46.58126644 57.64027918 -52.625 51.4375 C-58.7530607 41.77401966 -59.94258201 29.7575962 -57.56640625 18.69140625 C-55.64435249 12.94119563 -52.96660188 7.82346957 -48.25 3.875 C-47.59 3.875 -46.93 3.875 -46.25 3.875 C-46.25 3.215 -46.25 2.555 -46.25 1.875 C-31.32762002 -7.05020599 -15.50713312 -10.13927935 0 0 Z " fill="#1D507C" transform="translate(308.25,390.125)"/>
<path d="M0 0 C16.5 0 33 0 50 0 C50 4.29 50 8.58 50 13 C34.16 13.495 34.16 13.495 18 14 C18 18.62 18 23.24 18 28 C27.24 28 36.48 28 46 28 C46 32.62 46 37.24 46 42 C36.76 42.33 27.52 42.66 18 43 C18.03958993 50.85342779 18.03958993 50.85342779 18.09008789 58.70678711 C18.09258545 59.6788208 18.09508301 60.65085449 18.09765625 61.65234375 C18.10551147 63.15269165 18.10551147 63.15269165 18.11352539 64.68334961 C18 67 18 67 17 68 C14.3226862 68.09981214 11.67695825 68.13879875 9 68.125 C7.87464844 68.13080078 7.87464844 68.13080078 6.7265625 68.13671875 C1.12661053 68.12661053 1.12661053 68.12661053 0 67 C-0.09417773 64.91380978 -0.11742878 62.82439523 -0.11352539 60.73608398 C-0.11367142 60.08244873 -0.11381744 59.42881348 -0.1139679 58.75537109 C-0.11326883 56.58557872 -0.10547678 54.41587121 -0.09765625 52.24609375 C-0.09579205 50.74536689 -0.09436816 49.24463943 -0.09336853 47.74391174 C-0.08954352 43.78681774 -0.0797134 39.82976022 -0.06866455 35.87268066 C-0.05665533 31.1286825 -0.05204811 26.38467215 -0.04621124 21.64066315 C-0.03650162 14.42708336 -0.01734498 7.21358369 0 0 Z " fill="#1B4D79" transform="translate(196,386)"/>
<path d="M0 0 C1.32 0.66 2.64 1.32 4 2 C4 2.66 4 3.32 4 4 C4.56847656 4.26296875 5.13695312 4.5259375 5.72265625 4.796875 C8.16236322 6.08577679 10.22945005 7.59675518 12.4375 9.25 C18.26681929 13.4063308 24.44858878 16.14246958 31 19 C31 26.59 31 34.18 31 42 C26.72375805 40.93093951 23.39763083 39.11550903 19.625 36.9375 C18.92761719 36.53990479 18.23023438 36.14230957 17.51171875 35.73266602 C15.33870302 34.4926619 13.16938332 33.24634539 11 32 C9.6123043 31.20776356 8.2242936 30.41607856 6.8359375 29.625 C3.55464673 27.75459067 0.27646552 25.87884819 -3 24 C-3.60585937 24.36351562 -4.21171875 24.72703125 -4.8359375 25.1015625 C-6.60772834 26.164637 -8.37989337 27.22708801 -10.15234375 28.2890625 C-11.93900476 29.36252961 -13.72324822 30.44004182 -15.50390625 31.5234375 C-31.90944882 41.4773622 -31.90944882 41.4773622 -38 43 C-38 35.74 -38 28.48 -38 21 C-35.586875 20.29875 -33.17375 19.5975 -30.6875 18.875 C-19.29066799 15.39864789 -7.05688488 10.0259401 0 0 Z " fill="#7CADC5" transform="translate(255,304)"/>
<path d="M0 0 C3.02408936 1.33490137 4.04779294 2.06325536 6.125 4.8125 C10.1738974 9.97484418 17.66286707 13.36075839 24.09375 14.30859375 C30.79534943 14.66760801 34.96028937 12.87452891 40.65234375 9.41015625 C43 8 43 8 46 7 C47.20882096 4.99983534 47.20882096 4.99983534 48 3 C52 3 52 3 54.0625 4.8125 C54.701875 5.534375 55.34125 6.25625 56 7 C56.556875 7.474375 57.11375 7.94875 57.6875 8.4375 C59.57187661 10.68080549 60 12.06316262 60 15 C57.875 17.5625 57.875 17.5625 55 20 C54.154375 20.7425 53.30875 21.485 52.4375 22.25 C50.16971819 23.87815105 48.724966 24.59630133 46 25 C46 25.66 46 26.32 46 27 C39.54198556 29.86431935 34.1527744 30.49066748 27.125 30.4375 C25.73087891 30.4674707 25.73087891 30.4674707 24.30859375 30.49804688 C18.31016299 30.49386387 13.73396234 29.47544942 8.28466797 26.95727539 C5.9837742 25.89732905 5.9837742 25.89732905 3.29736328 25.50561523 C1 25 1 25 -0.375 22.875 C-0.91125 21.92625 -1.4475 20.9775 -2 20 C-3.84184928 18.18654928 -5.73161173 16.45368317 -7.671875 14.74609375 C-9 13 -9 13 -8.95703125 11.08203125 C-7.69642936 8.33957898 -5.98598558 6.4610638 -3.9375 4.25 C-3.20402344 3.45078125 -2.47054688 2.6515625 -1.71484375 1.828125 C-1.14894531 1.22484375 -0.58304687 0.6215625 0 0 Z " fill="#F2CE7F" transform="translate(266,255)"/>
<path d="M0 0 C0.33 0 0.66 0 1 0 C1 1.65 1 3.3 1 5 C1.73863281 4.95359375 2.47726563 4.9071875 3.23828125 4.859375 C14.52303278 4.45788448 23.6143026 7.28515839 32 15 C34.5 17.875 34.5 17.875 36 20 C33.32541825 20.96284943 31.73992695 20.96121718 28.8828125 20.53515625 C24.68609686 19.95673568 20.66419 19.85245765 16.4375 19.875 C15.70853516 19.87113281 14.97957031 19.86726563 14.22851562 19.86328125 C10.04349908 19.87081503 6.1223955 20.17942838 2 21 C-0.62096065 14.11997829 -0.18170362 7.27823961 0 0 Z " fill="#D0E5ED" transform="translate(128,172)"/>
<path d="M0 0 C3.66060821 0.58536753 5.54535164 2.083239 8.25 4.5625 C8.95640625 5.20316406 9.6628125 5.84382813 10.390625 6.50390625 C10.92171875 6.99761719 11.4528125 7.49132812 12 8 C11.24847221 12.25254749 9.49182539 13.91425563 6.1875 16.5390625 C-3.10118226 22.74257529 -13.22721552 22.9316424 -24 22 C-27.01353376 21.28151443 -29.23178246 20.41355789 -32 19 C-32 18.67 -32 18.34 -32 18 C-24.25 17.875 -24.25 17.875 -22 19 C-19.62876754 19.23029956 -17.25258057 19.41119942 -14.875 19.5625 C-13.59367187 19.64628906 -12.31234375 19.73007812 -10.9921875 19.81640625 C-9.51105469 19.90728516 -9.51105469 19.90728516 -8 20 C-7.67 18.68 -7.34 17.36 -7 16 C-7.66 16.33 -8.32 16.66 -9 17 C-9.33 16.01 -9.66 15.02 -10 14 C-10.99 13.34 -11.98 12.68 -13 12 C-12.67 11.01 -12.34 10.02 -12 9 C-15.63 9 -19.26 9 -23 9 C-23 8.01 -23 7.02 -23 6 C-22.07058594 6.04640625 -21.14117187 6.0928125 -20.18359375 6.140625 C-12.78483107 6.35664727 -8.03619952 6.38996328 -2 2 C-1.34 2 -0.68 2 0 2 C0 1.34 0 0.68 0 0 Z " fill="#255782" transform="translate(301,433)"/>
<path d="M0 0 C5.29333218 0.51642265 8.63789377 2.09192918 13 5 C13.33 5.99 13.66 6.98 14 8 C14.99 8.33 15.98 8.66 17 9 C16.67 9.99 16.34 10.98 16 12 C15.34 12 14.68 12 14 12 C13.7525 12.5775 13.505 13.155 13.25 13.75 C11.7872851 16.38288682 10.36173231 18.12450669 8 20 C5.06647944 20 3.81775268 18.85875833 1.5 17.0625 C-3.00591658 13.85232627 -8.64675986 13.65832727 -14 13 C-14 12.67 -14 12.34 -14 12 C-10.7 12 -7.4 12 -4 12 C-4.33 10.68 -4.66 9.36 -5 8 C-5 6 -5 6 -2.5 3.4375 C-1.675 2.633125 -0.85 1.82875 0 1 C0 0.67 0 0.34 0 0 Z " fill="#285882" transform="translate(296,386)"/>
<path d="M0 0 C3.35257489 2.14908647 3.89145337 3.57356681 4.875 7.4375 C5.00130762 11.03726716 4.7715742 12.89974516 3 16 C-0.122002 18.08133467 -0.93266989 18.2737822 -4.5 18.25 C-5.66015625 18.25773437 -5.66015625 18.25773437 -6.84375 18.265625 C-9 18 -9 18 -12 16 C-13.69451611 11.37859241 -14.45687373 9.29848322 -12.8125 4.625 C-9.43949887 -0.26003612 -5.62759959 -0.89633139 0 0 Z " fill="#83B1C6" transform="translate(255,360)"/>
<path d="M0 0 C3.38031589 1.18767855 3.93216817 1.89825225 6 5 C6.5449818 9.82698169 6.71304929 11.89592369 4.0625 16 C0.48008358 18.33953725 -1.69676183 18.74316342 -5.90625 18.4765625 C-8 18 -8 18 -10.5625 16 C-12.40251016 12.15997879 -12.96007379 9.17716314 -12 5 C-8.58995171 0.03992976 -5.8809843 -0.74848891 0 0 Z " fill="#83AFC5" transform="translate(221,360)"/>
<path d="M0 0 C3 1.9375 3 1.9375 5 5 C5.86522074 9.30313323 5.72193187 12.71307798 3.5625 16.5625 C-0.2688552 18.71179682 -3.70918796 18.63100177 -8 18 C-10.5 16.9375 -10.5 16.9375 -12 15 C-13.20355978 10.357698 -13.34724112 7.22503402 -11 3 C-8.49054629 -1.04300876 -4.29366911 -0.86040451 0 0 Z " fill="#77ABC5" transform="translate(289,360)"/>
<path d="M0 0 C4.46926822 1.36560973 6.23349835 3.31133113 9 7 C9.99 7.66 10.98 8.32 12 9 C11.52570343 13.26866909 8.96478822 15.10933148 6 18 C5.67 18.99 5.34 19.98 5 21 C3.3125 22 3.3125 22 1 22 C-3.06289749 19.12211428 -6.02040644 16.01099133 -9 12 C-7.82744291 8.66272214 -6.81131596 6.22562513 -4 4 C-3.34 4 -2.68 4 -2 4 C-1.34 2.68 -0.68 1.36 0 0 Z " fill="#F1CD81" transform="translate(314,198)"/>
<path d="M0 0 C26.4 0 52.8 0 80 0 C79.67 0.99 79.34 1.98 79 3 C78.01 3.33 77.02 3.66 76 4 C76 3.01 76 2.02 76 1 C51.25 1 26.5 1 1 1 C1.33 30.04 1.66 59.08 2 89 C2.33 88.01 2.66 87.02 3 86 C3.99 86 4.98 86 6 86 C4.43039961 89.66240092 3.06096354 90.93903646 0 94 C0 62.98 0 31.96 0 0 Z " fill="#EBCF93" transform="translate(192,181)"/>
<path d="M0 0 C17.16 0 34.32 0 52 0 C52 0.66 52 1.32 52 2 C35.5 2 19 2 2 2 C2 7.61 2 13.22 2 19 C12.23 19 22.46 19 33 19 C33 19.33 33 19.66 33 20 C22.11 20 11.22 20 0 20 C0 13.4 0 6.8 0 0 Z " fill="#FAF2D3" transform="translate(207,196)"/>
<path d="M0 0 C0.33 0 0.66 0 1 0 C1 21.78 1 43.56 1 66 C5.95 65.67 10.9 65.34 16 65 C16.33 59.72 16.66 54.44 17 49 C17.33 49 17.66 49 18 49 C18.02683987 51.97922593 18.04676037 54.95821295 18.0625 57.9375 C18.07087891 58.78763672 18.07925781 59.63777344 18.08789062 60.51367188 C18.09272461 61.72700195 18.09272461 61.72700195 18.09765625 62.96484375 C18.10551147 64.08814087 18.10551147 64.08814087 18.11352539 65.23413086 C18 67 18 67 17 68 C14.3226862 68.09981214 11.67695825 68.13879875 9 68.125 C7.87464844 68.13080078 7.87464844 68.13080078 6.7265625 68.13671875 C1.12661053 68.12661053 1.12661053 68.12661053 0 67 C-0.09417773 64.91380978 -0.11742878 62.82439523 -0.11352539 60.73608398 C-0.11367142 60.08244873 -0.11381744 59.42881348 -0.1139679 58.75537109 C-0.11326883 56.58557872 -0.10547678 54.41587121 -0.09765625 52.24609375 C-0.09579205 50.74536689 -0.09436816 49.24463943 -0.09336853 47.74391174 C-0.08954352 43.78681774 -0.0797134 39.82976022 -0.06866455 35.87268066 C-0.05845006 31.83765151 -0.05387083 27.80261647 -0.04882812 23.76757812 C-0.03809111 15.84503531 -0.0210149 7.92252219 0 0 Z " fill="#C8DFF3" transform="translate(196,386)"/>
<path d="M0 0 C0.33 0.66 0.66 1.32 1 2 C0.67 2.99 0.34 3.98 0 5 C-0.99 5 -1.98 5 -3 5 C-3 5.99 -3 6.98 -3 8 C-3.7425 8.721875 -4.485 9.44375 -5.25 10.1875 C-9.49187957 14.52578592 -11.53794977 19.15179907 -13 25 C-15.97 25.66 -18.94 26.32 -22 27 C-21.34 26.67 -20.68 26.34 -20 26 C-19.32989327 24.33471348 -18.66377358 22.66782099 -18 21 C-14.50302757 15.85583904 -10.44982946 11.32269148 -6 7 C-5.34 6.01 -4.68 5.02 -4 4 C-3.34 4 -2.68 4 -2 4 C-1.34 2.68 -0.68 1.36 0 0 Z " fill="#DFDFCA" transform="translate(212,300)"/>
<path d="M0 0 C0.33 0.66 0.66 1.32 1 2 C0.0625 4.125 0.0625 4.125 -1 6 C-1.66 6 -2.32 6 -3 6 C-3.103125 6.61875 -3.20625 7.2375 -3.3125 7.875 C-4 10 -4 10 -7 12 C-8.19232613 14.05003955 -8.19232613 14.05003955 -9 16 C-9.66 16 -10.32 16 -11 16 C-11.33 16.99 -11.66 17.98 -12 19 C-13.33333333 20.33333333 -14.66666667 21.66666667 -16 23 C-17.01187895 24.65948148 -18.0126546 26.32580562 -19 28 C-20.5 29.8125 -20.5 29.8125 -22 31 C-22.99 31 -23.98 31 -25 31 C-23.43405073 27.15630634 -20.90538994 24.90538994 -18 22 C-17.278125 20.906875 -16.55625 19.81375 -15.8125 18.6875 C-15.214375 17.800625 -14.61625 16.91375 -14 16 C-13.34 16 -12.68 16 -12 16 C-11.77570313 15.46890625 -11.55140625 14.9378125 -11.3203125 14.390625 C-9.55204584 11.1889114 -7.23950919 8.51852896 -4.875 5.75 C-4.40707031 5.19570312 -3.93914062 4.64140625 -3.45703125 4.0703125 C-2.30824672 2.71052674 -1.15460347 1.35484835 0 0 Z " fill="#EFD697" transform="translate(284,190)"/>
<path d="M0 0 C1.36777588 -0.0012085 1.36777588 -0.0012085 2.76318359 -0.00244141 C6.98012776 0.03266729 10.954101 0.11537082 15.0625 1.1875 C11.93287792 3.02060957 9.71394958 3.41862383 6.10546875 3.34765625 C5.15736328 3.33669922 4.20925781 3.32574219 3.23242188 3.31445312 C1.75612305 3.28254883 1.75612305 3.28254883 0.25 3.25 C-5.94934561 3.13907732 -11.79764142 3.17457917 -17.9375 4.1875 C-20.6168948 4.29501986 -23.25382049 4.2345821 -25.9375 4.1875 C-18.53979904 -0.74430064 -8.60501556 0.00741428 0 0 Z " fill="#9FBCCE" transform="translate(274.9375,68.8125)"/>
<path d="M0 0 C0.53625 0.37125 1.0725 0.7425 1.625 1.125 C-7.62141028 5.15979721 -19.81774046 6.23240983 -29.4375 2.625 C-30.406875 2.13 -31.37625 1.635 -32.375 1.125 C-32.375 0.795 -32.375 0.465 -32.375 0.125 C-24.625 0 -24.625 0 -22.375 1.125 C-20.12754466 1.24889818 -17.87583658 1.3006285 -15.625 1.3125 C-13.80742187 1.33376953 -13.80742187 1.33376953 -11.953125 1.35546875 C-8.37287581 1.28844823 -8.37287581 1.28844823 -5.171875 -0.01171875 C-2.375 -0.875 -2.375 -0.875 0 0 Z " fill="#486F8C" transform="translate(301.375,450.875)"/>
<path d="M0 0 C-0.33 1.65 -0.66 3.3 -1 5 C-1.66 5 -2.32 5 -3 5 C-3 5.66 -3 6.32 -3 7 C-5.875 7.625 -5.875 7.625 -9 8 C-9.66 7.34 -10.32 6.68 -11 6 C-10.8125 3.5 -10.8125 3.5 -10 1 C-6.1496895 -1.56687367 -4.41430237 -0.83288724 0 0 Z " fill="#77AAC3" transform="translate(254,361)"/>
<path d="M0 0 C0.33 0.66 0.66 1.32 1 2 C-0.375 4 -0.375 4 -2 6 C-2.66 6 -3.32 6 -4 6 C-4.061875 6.721875 -4.12375 7.44375 -4.1875 8.1875 C-5.25583071 11.88556786 -7.17508861 13.44412779 -10 16 C-10.556875 16.598125 -11.11375 17.19625 -11.6875 17.8125 C-13 19 -13 19 -15 19 C-14.67 20.32 -14.34 21.64 -14 23 C-15.65 23.99 -17.3 24.98 -19 26 C-19 21.18612064 -18.22816574 20.72313136 -15 17.375 C-10.97209988 13.08620904 -7.25576401 8.66190475 -3.62890625 4.03125 C-2 2 -2 2 0 0 Z " fill="#FBF3DD" transform="translate(246,260)"/>
<path d="M0 0 C1.06546953 3.1964086 1.07427838 5.65747276 1 9 C1.66 9.33 2.32 9.66 3 10 C3.33 10.99 3.66 11.98 4 13 C5.98 13 7.96 13 10 13 C10.66 11.35 11.32 9.7 12 8 C13.32 8.33 14.64 8.66 16 9 C14.84826645 11.46800047 13.95216435 13.04783565 12 15 C8.00416965 15.59397478 4.22823293 15.52199899 0.5 13.9375 C-1.75166734 11.02909635 -1.8747837 8.63127284 -2 5 C-1.0625 2.0625 -1.0625 2.0625 0 0 Z " fill="#A0C4CF" transform="translate(278,363)"/>
<path d="M0 0 C0.33 0 0.66 0 1 0 C1.02683987 2.97922593 1.04676037 5.95821295 1.0625 8.9375 C1.07087891 9.78763672 1.07925781 10.63777344 1.08789062 11.51367188 C1.09272461 12.72700195 1.09272461 12.72700195 1.09765625 13.96484375 C1.10551147 15.08814087 1.10551147 15.08814087 1.11352539 16.23413086 C1 18 1 18 0 19 C-2.69654854 19.07319621 -5.36691458 19.09242537 -8.0625 19.0625 C-8.82111328 19.05798828 -9.57972656 19.05347656 -10.36132812 19.04882812 C-12.24091871 19.0370068 -14.12046899 19.01907078 -16 19 C-16 18.34 -16 17.68 -16 17 C-11.05 16.67 -6.1 16.34 -1 16 C-0.67 10.72 -0.34 5.44 0 0 Z " fill="#869FB7" transform="translate(213,435)"/>
<path d="M0 0 C2.97 0.495 2.97 0.495 6 1 C5.125 5.75 5.125 5.75 4 8 C3.64386903 9.66194453 3.30791692 11.328451 3 13 C1 12 1 12 -0.1875 9.0625 C-1 6 -1 6 0 4 C0 2.68 0 1.36 0 0 Z " fill="#75ABC7" transform="translate(212,362)"/>
<path d="M0 0 C-0.33 0.99 -0.66 1.98 -1 3 C-1.66 3 -2.32 3 -3 3 C-3.47183746 7.05780213 -3.33329645 8.56195324 -0.8125 11.875 C1.7923915 14.21943804 1.7923915 14.21943804 4.8125 14.3125 C5.8953125 14.1578125 5.8953125 14.1578125 7 14 C7 14.99 7 15.98 7 17 C5.375 17.8125 5.375 17.8125 3 18 C-1.06289749 15.12211428 -4.02040644 12.01099133 -7 8 C-4.18918919 0 -4.18918919 0 0 0 Z " fill="#EBD59D" transform="translate(312,202)"/>
<path d="M0 0 C9.9 0 19.8 0 30 0 C30 5 30 5 27.5 7.8125 C26.675 8.534375 25.85 9.25625 25 10 C25 8.68 25 7.36 25 6 C25.66 6 26.32 6 27 6 C27 5.01 27 4.02 27 3 C27.66 3 28.32 3 29 3 C29 2.34 29 1.68 29 1 C19.43 1 9.86 1 0 1 C0 0.67 0 0.34 0 0 Z " fill="#F0CF8B" transform="translate(238,182)"/>
<path d="M0 0 C6.38994419 2.36150111 11.52794678 5.98128888 17 10 C15.125 10.625 15.125 10.625 13 11 C12.34 10.34 11.68 9.68 11 9 C9.7032217 8.49890945 8.38789576 8.04458525 7.0625 7.625 C3.63105997 6.39815121 1.73274058 5.35718487 0 2 C0 1.34 0 0.68 0 0 Z " fill="#92B7C9" transform="translate(318,79)"/>
<path d="M0 0 C3.7952131 1.49097658 5.61042731 3.75700849 8 7 C5.33333333 5.66666667 2.66666667 4.33333333 0 3 C-0.268125 3.598125 -0.53625 4.19625 -0.8125 4.8125 C-2.00987475 7.01819033 -3.04478984 8.43583187 -5 10 C-5.99 10 -6.98 10 -8 10 C-6.34908222 5.70761377 -3.26245434 3.1206085 0 0 Z " fill="#EFD59C" transform="translate(315,154)"/>
<path d="M0 0 C0.67804688 0.28875 1.35609375 0.5775 2.0546875 0.875 C10.68272219 4.31665373 18.18851229 5.71010009 27 2 C26.67 2.99 26.34 3.98 26 5 C22.392112 6.20262933 19.42781238 6.13247114 15.625 6.125 C14.31789063 6.12757813 13.01078125 6.13015625 11.6640625 6.1328125 C4.08179522 5.85797552 4.08179522 5.85797552 1.1875 3.5625 C0 2 0 2 0 0 Z " fill="#EFD496" transform="translate(277,265)"/>
<path d="M0 0 C2.45234885 0.98093954 3.7809268 1.68703828 5.3125 3.875 C6.1556526 6.48110803 6.09615653 7.49449936 5 10 C2.9375 12.25 2.9375 12.25 1 14 C0.67 13.01 0.34 12.02 0 11 C0.66 10.67 1.32 10.34 2 10 C1.649375 9.38125 1.29875 8.7625 0.9375 8.125 C0.628125 7.42375 0.31875 6.7225 0 6 C0.33 5.34 0.66 4.68 1 4 C0.60061233 1.90178785 0.60061233 1.90178785 0 0 Z " fill="#EED18D" transform="translate(320,261)"/>
<path d="M0 0 C0 0.66 0 1.32 0 2 C8.58 2 17.16 2 26 2 C25.67 2.66 25.34 3.32 25 4 C20.41617026 3.89018094 15.83316568 3.7595352 11.25 3.625 C9.94804687 3.5940625 8.64609375 3.563125 7.3046875 3.53125 C6.05429688 3.49257813 4.80390625 3.45390625 3.515625 3.4140625 C1.78747559 3.36693115 1.78747559 3.36693115 0.02441406 3.31884766 C-2.84834422 3.01598825 -4.56179611 2.4911762 -7 1 C-4 0 -4 0 0 0 Z " fill="#C1E1EF" transform="translate(137,316)"/>
<path d="M0 0 C1.32 0.66 2.64 1.32 4 2 C2.7934375 2.37125 2.7934375 2.37125 1.5625 2.75 C-1.14904979 3.7023933 -1.14904979 3.7023933 -1.6875 5.9375 C-1.790625 6.618125 -1.89375 7.29875 -2 8 C-2.99 9.485 -2.99 9.485 -4 11 C-4.66 11 -5.32 11 -6 11 C-5.34 8.03 -4.68 5.06 -4 2 C-2.68 2 -1.36 2 0 2 C0 1.34 0 0.68 0 0 Z " fill="#4E708E" transform="translate(273,400)"/>
<path d="M0 0 C2.6875 -0.3125 2.6875 -0.3125 6 0 C8.80740885 2.24592708 10.61164156 3.89467213 11.8125 7.3125 C11.874375 7.869375 11.93625 8.42625 12 9 C8.63408134 7.55746343 6.48952921 5.66735273 4 3 C2.35 3.66 0.7 4.32 -1 5 C-0.67 3.35 -0.34 1.7 0 0 Z " fill="#FDF7E5" transform="translate(313,152)"/>
<path d="M0 0 C0.33 0.66 0.66 1.32 1 2 C1.99 2.33 2.98 2.66 4 3 C3.67 3.99 3.34 4.98 3 6 C2.34 6 1.68 6 1 6 C0.67 6.66 0.34 7.32 0 8 C-1.65 7.01 -3.3 6.02 -5 5 C-4.1875 3.0625 -4.1875 3.0625 -3 1 C-2.01 0.67 -1.02 0.34 0 0 Z " fill="#376287" transform="translate(309,392)"/>
<path d="M0 0 C0.33 0 0.66 0 1 0 C1 5.61 1 11.22 1 17 C-0.32 16.67 -1.64 16.34 -3 16 C-2.68954268 14.0830014 -2.37655329 12.16641277 -2.0625 10.25 C-1.88847656 9.18265625 -1.71445313 8.1153125 -1.53515625 7.015625 C-1.11295829 4.63652407 -0.62797116 2.33084789 0 0 Z " fill="#133F67" transform="translate(212,398)"/>
<path d="M0 0 C0.66 1.32 1.32 2.64 2 4 C0.700625 4.37125 0.700625 4.37125 -0.625 4.75 C-4.18302254 6.06778613 -6.9226155 7.80186822 -10 10 C-10 7 -10 7 -8.375 5 C-5.7490306 2.78865734 -3.11646571 1.41657532 0 0 Z " fill="#74A9BF" transform="translate(101,194)"/>
<path d="M0 0 C1.9375 0.375 1.9375 0.375 4 1 C4.33 1.66 4.66 2.32 5 3 C5.66 2.67 6.32 2.34 7 2 C7.66 2.66 8.32 3.32 9 4 C8.01 4.33 7.02 4.66 6 5 C5.67 5.66 5.34 6.32 5 7 C3.35 7 1.7 7 0 7 C-0.93423645 3.98968256 -1.04449911 3.13349732 0 0 Z " fill="#104976" transform="translate(288,446)"/>
<path d="M0 0 C-0.33 0.99 -0.66 1.98 -1 3 C-1.66 3 -2.32 3 -3 3 C-3.66 4.32 -4.32 5.64 -5 7 C-7.31 6.67 -9.62 6.34 -12 6 C-8.59780735 3.25207517 -4.51535412 0 0 0 Z " fill="#9ABBCD" transform="translate(236,77)"/>
<path d="M0 0 C2.22111286 0.38295049 3.80380283 0.86920188 5.6875 2.125 C7.69313853 4.9901979 7.81861046 7.55359865 8 11 C7.0625 13.4375 7.0625 13.4375 6 15 C5.375 13.1875 5.375 13.1875 5 11 C5.66 10.01 6.32 9.02 7 8 C6.01 7.67 5.02 7.34 4 7 C2 4 2 4 2 1 C1.34 0.67 0.68 0.34 0 0 Z " fill="#9BC0D1" transform="translate(252,360)"/>
<path d="M0 0 C0.33 0.66 0.66 1.32 1 2 C0.34 2 -0.32 2 -1 2 C-1.020625 2.70125 -1.04125 3.4025 -1.0625 4.125 C-2.44979209 8.3793624 -5.51624172 10.35307139 -9 13 C-9.66 12.67 -10.32 12.34 -11 12 C-9.625 10 -9.625 10 -8 8 C-7.34 8 -6.68 8 -6 8 C-5.34 6.35 -4.68 4.7 -4 3 C-3.34 3 -2.68 3 -2 3 C-2 2.34 -2 1.68 -2 1 C-1.34 0.67 -0.68 0.34 0 0 Z " fill="#EFD699" transform="translate(223,264)"/>
<path d="M0 0 C0.66 0.33 1.32 0.66 2 1 C0.02 5.29 -1.96 9.58 -4 14 C-4.66 14 -5.32 14 -6 14 C-6.33 13.01 -6.66 12.02 -7 11 C-6.34 11 -5.68 11 -5 11 C-4.34 8.69 -3.68 6.38 -3 4 C-2.34 4 -1.68 4 -1 4 C-0.67 2.68 -0.34 1.36 0 0 Z " fill="#8BB0C1" transform="translate(201,124)"/>
<path d="M0 0 C1.91729577 2.81955261 1.99331618 4.07619554 1.6875 7.5625 C1 11 1 11 0 14 C-1.99825961 11.00261059 -2.27550398 10.36652492 -2.25 7 C-2.25515625 6.319375 -2.2603125 5.63875 -2.265625 4.9375 C-2 3 -2 3 0 0 Z " fill="#97B7C5" transform="translate(211,362)"/>
<path d="M0 0 C3.27725968 0.05958654 3.94187595 0.22850076 6.625 2.375 C7.12 3.035 7.615 3.695 8.125 4.375 C7.135 4.87 7.135 4.87 6.125 5.375 C5.795 4.715 5.465 4.055 5.125 3.375 C1.49614676 3.22350702 1.49614676 3.22350702 -1.875 4.375 C-4 3.4375 -4 3.4375 -5.875 2.375 C-3.875 0.375 -3.875 0.375 0 0 Z " fill="#A1BCCC" transform="translate(284.875,359.625)"/>
<path d="M0 0 C0.33 0.66 0.66 1.32 1 2 C-1.42591303 7.57597921 -4.75856133 11.07454586 -10 14 C-8.25 10.125 -8.25 10.125 -6 9 C-5.566875 7.8553125 -5.566875 7.8553125 -5.125 6.6875 C-3.87898624 3.71091157 -2.37769684 2.13992716 0 0 Z " fill="#ECD699" transform="translate(202,288)"/>
<path d="M0 0 C0.99 0.33 1.98 0.66 3 1 C0.69 3.97 -1.62 6.94 -4 10 C-4.99 9.67 -5.98 9.34 -7 9 C-4.69 6.03 -2.38 3.06 0 0 Z " fill="#EFD896" transform="translate(235,248)"/>
<path d="M0 0 C0 3 0 3 -2.1875 5.3125 C-3.115625 6.199375 -4.04375 7.08625 -5 8 C-6.71439073 9.9645991 -8.35359305 11.97727146 -10 14 C-10 10.79604584 -9.25664978 8.90600261 -8 6 C-7.01 6 -6.02 6 -5 6 C-4.731875 5.38125 -4.46375 4.7625 -4.1875 4.125 C-3 2 -3 2 0 0 Z " fill="#DFE2CB" transform="translate(196,295)"/>
<path d="M0 0 C0.33 0.66 0.66 1.32 1 2 C-0.97583004 7.23013834 -3.66637965 9.72570907 -8 13 C-8.66 12.67 -9.32 12.34 -10 12 C-9.38125 11.4225 -8.7625 10.845 -8.125 10.25 C-5.97478736 8.19041188 -5.97478736 8.19041188 -5 6 C-3.74787764 3.49575529 -2.03379922 1.8982126 0 0 Z " fill="#FCF5E0" transform="translate(225,285)"/>
<path d="M0 0 C0.66 0.33 1.32 0.66 2 1 C2 1.66 2 2.32 2 3 C2.99 3.33 3.98 3.66 5 4 C6.6875 6.0625 6.6875 6.0625 8 8 C7.67 8.66 7.34 9.32 7 10 C4.96166576 8.7260411 2.96147874 7.38938077 1 6 C1 5.34 1 4.68 1 4 C-0.32 3.34 -1.64 2.68 -3 2 C-2.01 1.34 -1.02 0.68 0 0 Z " fill="#9DC0D0" transform="translate(346,100)"/>
<path d="M0 0 C0.5775 0.20625 1.155 0.4125 1.75 0.625 C-3.51723095 3.87227345 -7.64949939 3.99834093 -13.625 3.8125 C-14.45644531 3.79896484 -15.28789062 3.78542969 -16.14453125 3.77148438 C-18.17997066 3.73639059 -20.21507291 3.68259228 -22.25 3.625 C-22.25 3.295 -22.25 2.965 -22.25 2.625 C-21.14140625 2.57601563 -20.0328125 2.52703125 -18.890625 2.4765625 C-17.42705935 2.40150785 -15.96351888 2.32596119 -14.5 2.25 C-13.40558594 2.20359375 -13.40558594 2.20359375 -12.2890625 2.15625 C-8.12101911 1.92890218 -3.77606913 -0.62934486 0 0 Z " fill="#FCF2D4" transform="translate(310.25,282.375)"/>
<path d="M0 0 C5.71642118 -0.23332331 10.63636982 -0.12310361 16 2 C16.33 2.99 16.66 3.98 17 5 C11.30694567 3.76123355 5.64629987 2.43723997 0 1 C0 0.67 0 0.34 0 0 Z " fill="#90B3C5" transform="translate(288,84)"/>
<path d="M0 0 C0.33 1.32 0.66 2.64 1 4 C0.01 4.33 -0.98 4.66 -2 5 C-2.12375 5.639375 -2.2475 6.27875 -2.375 6.9375 C-2.58125 7.618125 -2.7875 8.29875 -3 9 C-5.5625 10.25 -5.5625 10.25 -8 11 C-8 10.34 -8 9.68 -8 9 C-7.34 9 -6.68 9 -6 9 C-5.7525 8.443125 -5.505 7.88625 -5.25 7.3125 C-3.78393985 4.60028873 -1.97010529 2.36412635 0 0 Z " fill="#F0D79A" transform="translate(246,235)"/>
<path d="M0 0 C0.66 0.33 1.32 0.66 2 1 C1.34 2.32 0.68 3.64 0 5 C-0.99 5 -1.98 5 -3 5 C-3 5.66 -3 6.32 -3 7 C-4.98 7.33 -6.96 7.66 -9 8 C-6.14723863 5.06799526 -3.34920216 2.35684596 0 0 Z " fill="#9EBFCF" transform="translate(221,84)"/>
<path d="M0 0 C4.455 0.99 4.455 0.99 9 2 C8.01 2.33 7.02 2.66 6 3 C5.34 2.67 4.68 2.34 4 2 C4 2.66 4 3.32 4 4 C4.99 4.33 5.98 4.66 7 5 C4 6 4 6 0.8125 4.5625 C-0.115625 4.046875 -1.04375 3.53125 -2 3 C-1.34 2.01 -0.68 1.02 0 0 Z " fill="#90B9CE" transform="translate(304,74)"/>
<path d="M0 0 C1.32 0.33 2.64 0.66 4 1 C4 1.99 4 2.98 4 4 C0.696686 4.88935377 -2.62294375 5.46274105 -6 6 C-4.71034824 4.62437146 -3.37310707 3.29233607 -2 2 C-1.34 2 -0.68 2 0 2 C0 1.34 0 0.68 0 0 Z " fill="#567893" transform="translate(301,433)"/>
<path d="M0 0 C3.67758005 3.28355362 5.81389118 6.62778237 8 11 C7.67 11.66 7.34 12.32 7 13 C6.34 13 5.68 13 5 13 C4.67 11.35 4.34 9.7 4 8 C3.01 7.67 2.02 7.34 1 7 C0.67 4.69 0.34 2.38 0 0 Z " fill="#A3C3D2" transform="translate(354,110)"/>
<path d="M0 0 C1.06546953 3.1964086 1.07427838 5.65747276 1 9 C1.66 9.33 2.32 9.66 3 10 C3 10.99 3 11.98 3 13 C1.68 12.67 0.36 12.34 -1 12 C-1.92470553 7.28400182 -2.22923777 4.32734391 0 0 Z " fill="#97B4C5" transform="translate(278,363)"/>
<path d="M0 0 C0 3 0 3 -0.5625 5.4375 C-1.00708707 8.04150999 -0.82487039 9.52538884 0 12 C-1.65 10.68 -3.3 9.36 -5 8 C-4.45773019 4.20411134 -2.79872437 2.52788007 0 0 Z " fill="#EAD397" transform="translate(262,260)"/>
<path d="M0 0 C0.33 1.32 0.66 2.64 1 4 C0.01 4.33 -0.98 4.66 -2 5 C-2 5.66 -2 6.32 -2 7 C-4 8.625 -4 8.625 -6 10 C-6.66 9.67 -7.32 9.34 -8 9 C-5.36 6.03 -2.72 3.06 0 0 Z " fill="#E5F4FA" transform="translate(102,209)"/>
<path d="M0 0 C0.99 0.33 1.98 0.66 3 1 C-0.3 3.97 -3.6 6.94 -7 10 C-7.33 9.01 -7.66 8.02 -8 7 C-5.59563974 3.39345961 -4.05320393 3.14547068 0 2 C0 1.34 0 0.68 0 0 Z " fill="#89B0C1" transform="translate(108,201)"/>
<path d="M0 0 C0.66 0.33 1.32 0.66 2 1 C1.9375 3.25 1.9375 3.25 1 6 C-1.2308475 7.67849824 -3.47405906 8.75999263 -6 10 C-4.69063102 7.07909997 -3.24380538 5.24380538 -1 3 C-0.67 2.01 -0.34 1.02 0 0 Z " fill="#FBF2DA" transform="translate(326,163)"/>
<path d="M0 0 C0.33 1.32 0.66 2.64 1 4 C-1.64 6.31 -4.28 8.62 -7 11 C-7 6.68381834 -4.86729652 5.07210341 -2 2 C-1.34 2 -0.68 2 0 2 C0 1.34 0 0.68 0 0 Z " fill="#EFDCA5" transform="translate(211,277)"/>
<path d="M0 0 C2.1875 -0.375 2.1875 -0.375 5 0 C6.99022836 1.83961648 8.38989899 3.79186148 10 6 C6.62972148 6 5.93297304 5.50175992 3.3125 3.5625 C2.68988281 3.11003906 2.06726563 2.65757812 1.42578125 2.19140625 C0.95527344 1.79824219 0.48476563 1.40507812 0 1 C0 0.67 0 0.34 0 0 Z " fill="#4E708D" transform="translate(259,444)"/>
<path d="M0 0 C2.38672669 2.96283313 4.7353371 5.94270509 7 9 C6.67 9.66 6.34 10.32 6 11 C5.34 10.67 4.68 10.34 4 10 C4 9.01 4 8.02 4 7 C3.01 7 2.02 7 1 7 C0.67 4.69 0.34 2.38 0 0 Z " fill="#A2C1D0" transform="translate(426,191)"/>
<path d="M0 0 C0.33 0.66 0.66 1.32 1 2 C-0.125 4.5625 -0.125 4.5625 -2 7 C-4.6875 7.8125 -4.6875 7.8125 -7 8 C-6.02133662 6.85373678 -5.04205413 5.70800212 -4.0625 4.5625 C-3.51722656 3.92441406 -2.97195312 3.28632813 -2.41015625 2.62890625 C-1.63204305 1.73008851 -0.84063472 0.84063472 0 0 Z " fill="#91B8CA" transform="translate(135,131)"/>
<path d="M0 0 C1 2 1 2 0.3125 4.5 C-1.15567038 7.29651501 -2.09303901 7.93411431 -5 9 C-4.42647107 5.12867972 -2.51295648 2.91827204 0 0 Z " fill="#A2C3D1" transform="translate(197,107)"/>
<path d="M0 0 C0 0.66 0 1.32 0 2 C-8.261959 6.59225513 -8.261959 6.59225513 -13 6 C-9.40464172 2.97989905 -4.81374718 0 0 0 Z " fill="#E3F3F8" transform="translate(248,88)"/>
<path d="M0 0 C1.32 0.66 2.64 1.32 4 2 C3.60196439 4.88575819 3.20990931 5.82189513 0.9375 7.75 C-0.0215625 8.36875 -0.0215625 8.36875 -1 9 C-1.08886184 5.80097361 -0.91058531 3.07322544 0 0 Z " fill="#66869F" transform="translate(309,439)"/>
<path d="M0 0 C0.66 0.33 1.32 0.66 2 1 C2 3.31 2 5.62 2 8 C1.01 8 0.02 8 -1 8 C-2.2077558 4.37673261 -1.54311128 3.35853631 0 0 Z " fill="#84ACBD" transform="translate(292,364)"/>
<path d="M0 0 C2.64 0 5.28 0 8 0 C8.33 1.65 8.66 3.3 9 5 C5.51694958 4.35499066 2.93797836 2.95865224 0 1 C0 0.67 0 0.34 0 0 Z " fill="#96B5C8" transform="translate(277,341)"/>
<path d="M0 0 C0.66 0 1.32 0 2 0 C1.54917531 1.46067199 1.08906463 2.91848032 0.625 4.375 C0.36976563 5.18710937 0.11453125 5.99921875 -0.1484375 6.8359375 C-1 9 -1 9 -3 11 C-2.25 3.375 -2.25 3.375 0 0 Z " fill="#9FBED0" transform="translate(436,275)"/>
<path d="M0 0 C0.33 1.32 0.66 2.64 1 4 C-1.4375 6.75 -1.4375 6.75 -4 9 C-4.66 8.67 -5.32 8.34 -6 8 C-4.02 5.36 -2.04 2.72 0 0 Z " fill="#FBF3D9" transform="translate(253,251)"/>
<path d="M0 0 C0.33 0.66 0.66 1.32 1 2 C-0.21958756 4.67371119 -1.18298261 6.75412136 -3 9 C-5.75 9.9375 -5.75 9.9375 -8 10 C-7.04367001 8.70684939 -6.08486149 7.41553147 -5.125 6.125 C-4.59132812 5.40570313 -4.05765625 4.68640625 -3.5078125 3.9453125 C-2 2 -2 2 0 0 Z " fill="#EFD79B" transform="translate(258,221)"/>
<path d="M0 0 C0.33 0 0.66 0 1 0 C1.04898438 0.67546875 1.09796875 1.3509375 1.1484375 2.046875 C1.22320312 2.93890625 1.29796875 3.8309375 1.375 4.75 C1.44460937 5.63171875 1.51421875 6.5134375 1.5859375 7.421875 C1.99850055 9.99066382 2.71160957 11.75841015 4 14 C3.01 14.33 2.02 14.66 1 15 C-0.44207941 12.11584117 -0.09394887 9.58278472 -0.0625 6.375 C-0.05347656 5.18648438 -0.04445312 3.99796875 -0.03515625 2.7734375 C-0.02355469 1.85820312 -0.01195312 0.94296875 0 0 Z " fill="#12446E" transform="translate(251,415)"/>
<path d="M0 0 C0.99 0.33 1.98 0.66 3 1 C3 1.66 3 2.32 3 3 C4.65 2.67 6.3 2.34 8 2 C8 2.99 8 3.98 8 5 C6.68 5.33 5.36 5.66 4 6 C2.68 4.02 1.36 2.04 0 0 Z " fill="#486786" transform="translate(297,400)"/>
<path d="M0 0 C0 0.66 0 1.32 0 2 C-3.69418201 3.231394 -6.2056261 2.64432764 -10 2 C-5.86678317 -0.75547789 -4.77928863 -1.13193678 0 0 Z " fill="#3D6386" transform="translate(278,387)"/>
<path d="M0 0 C3.53600465 1.91135386 5.78972846 3.62642766 8 7 C6.68 7.33 5.36 7.66 4 8 C4 7.34 4 6.68 4 6 C3.01 5.67 2.02 5.34 1 5 C0.67 3.35 0.34 1.7 0 0 Z " fill="#E6F3F9" transform="translate(399,184)"/>
<path d="M0 0 C3.63 2.31 7.26 4.62 11 7 C9.68 7.33 8.36 7.66 7 8 C6.34 7.34 5.68 6.68 5 6 C4.34 5.67 3.68 5.34 3 5 C3 4.34 3 3.68 3 3 C2.01 2.67 1.02 2.34 0 2 C0 1.34 0 0.68 0 0 Z " fill="#A4C1CF" transform="translate(324,82)"/>
<path d="M0 0 C4.51617599 -0.07654536 8.59085217 -0.10228696 13 1 C10.65887549 2.44977894 9.4203071 3.04314411 6.640625 2.7578125 C5.85171875 2.54898438 5.0628125 2.34015625 4.25 2.125 C3.45078125 1.92132813 2.6515625 1.71765625 1.828125 1.5078125 C0.92320312 1.25644531 0.92320312 1.25644531 0 1 C0 0.67 0 0.34 0 0 Z " fill="#AECBD8" transform="translate(277,69)"/>
<path d="M0 0 C1.8125 0.8125 1.8125 0.8125 2.8125 2.8125 C1.1625 2.8125 -0.4875 2.8125 -2.1875 2.8125 C-2.5175 3.4725 -2.8475 4.1325 -3.1875 4.8125 C-4.1775 4.1525 -5.1675 3.4925 -6.1875 2.8125 C-2.77144161 -0.23755214 -2.77144161 -0.23755214 0 0 Z " fill="#8FB4C4" transform="translate(249.1875,360.1875)"/>
<path d="M0 0 C3.63 1.32 7.26 2.64 11 4 C11 4.33 11 4.66 11 5 C8.69 5 6.38 5 4 5 C4 4.34 4 3.68 4 3 C2.68 2.67 1.36 2.34 0 2 C0 1.34 0 0.68 0 0 Z " fill="#FEF5DF" transform="translate(271,280)"/>
<path d="M0 0 C1.4606285 2.64738916 2 3.89448334 2 7 C1.34 7 0.68 7 0 7 C-0.66 8.32 -1.32 9.64 -2 11 C-2.28571429 3.57142857 -2.28571429 3.57142857 0 0 Z " fill="#76A7C0" transform="translate(118,156)"/>
<path d="M0 0 C0.66 0.33 1.32 0.66 2 1 C1.34 2.65 0.68 4.3 0 6 C-2.97 5.505 -2.97 5.505 -6 5 C-5.195625 4.360625 -4.39125 3.72125 -3.5625 3.0625 C-1.7249496 1.59396498 -1.7249496 1.59396498 0 0 Z " fill="#F3D9A1" transform="translate(310,262)"/>
<path d="M0 0 C0.33 1.32 0.66 2.64 1 4 C0.34 4 -0.32 4 -1 4 C-1.33 4.99 -1.66 5.98 -2 7 C-3.32 7.33 -4.64 7.66 -6 8 C-4.02 5.36 -2.04 2.72 0 0 Z " fill="#F1D79A" transform="translate(291,182)"/>
<path d="M0 0 C1.32 0.66 2.64 1.32 4 2 C1.6875 3.5625 1.6875 3.5625 -1 5 C-1.99 4.67 -2.98 4.34 -4 4 C-4 3.34 -4 2.68 -4 2 C-2.68 2 -1.36 2 0 2 C0 1.34 0 0.68 0 0 Z " fill="#3C6488" transform="translate(273,400)"/>
<path d="M0 0 C2.5 1.375 2.5 1.375 5 3 C5 3.66 5 4.32 5 5 C2.69 5 0.38 5 -2 5 C-1.34 3.35 -0.68 1.7 0 0 Z " fill="#15426B" transform="translate(216,394)"/>
<path d="M0 0 C0.33 0.66 0.66 1.32 1 2 C4.02934491 2.65772428 4.02934491 2.65772428 7 3 C7 3.99 7 4.98 7 6 C1.25 4.125 1.25 4.125 -1 3 C-0.67 2.01 -0.34 1.02 0 0 Z " fill="#9CBFCD" transform="translate(111,323)"/>
<path d="M0 0 C0 0.66 0 1.32 0 2 C1.65 2 3.3 2 5 2 C5 2.33 5 2.66 5 3 C-3.57142857 3.28571429 -3.57142857 3.28571429 -7 1 C-4 0 -4 0 0 0 Z " fill="#B4D9E8" transform="translate(137,316)"/>
<path d="M0 0 C2.475 0.99 2.475 0.99 5 2 C3.35 3.65 1.7 5.3 0 7 C0 4.69 0 2.38 0 0 Z " fill="#88B3CB" transform="translate(418,300)"/>
<path d="M0 0 C0.99 0.33 1.98 0.66 3 1 C1.02 3.31 -0.96 5.62 -3 8 C-3.33 6.68 -3.66 5.36 -4 4 C-2.68 3.34 -1.36 2.68 0 2 C0 1.34 0 0.68 0 0 Z " fill="#FDF9E2" transform="translate(285,186)"/>
<path d="M0 0 C-0.33 0.99 -0.66 1.98 -1 3 C-3.64 3.33 -6.28 3.66 -9 4 C-6.19632015 0.92930303 -4.26207314 0 0 0 Z " fill="#A1BFD0" transform="translate(155,121)"/>
<path d="M0 0 C-2.64 0.66 -5.28 1.32 -8 2 C-8 1.01 -8 0.02 -8 -1 C-4.59745511 -2.2151946 -3.06748874 -1.86240388 0 0 Z " fill="#5C7F9D" transform="translate(303,452)"/>
<path d="M0 0 C6.0546875 -0.1953125 6.0546875 -0.1953125 8 0 C8.66 0.66 9.32 1.32 10 2 C6.18510326 3.46726798 3.70988378 2.43336419 0 1 C0 0.67 0 0.34 0 0 Z " fill="#507895" transform="translate(269,451)"/>
<path d="M0 0 C0.99 0 1.98 0 3 0 C3 0.66 3 1.32 3 2 C3.99 2.33 4.98 2.66 6 3 C6 3.66 6 4.32 6 5 C4.02 5 2.04 5 0 5 C0.66 4.67 1.32 4.34 2 4 C1.34 2.68 0.68 1.36 0 0 Z " fill="#97BAC7" transform="translate(168,328)"/>
<path d="M0 0 C0.33 3.3 0.66 6.6 1 10 C-1.71843438 6.37542083 -2.41789544 5.19115285 -3 1 C-1 0 -1 0 0 0 Z " fill="#A4C4D3" transform="translate(76,281)"/>
<path d="M0 0 C2.56687367 3.8503105 1.83288724 5.58569763 1 10 C-0.85064319 6.87703962 -1.29356154 4.62059232 -1 1 C-0.67 0.67 -0.34 0.34 0 0 Z " fill="#93BDC9" transform="translate(438,265)"/>
<path d="M0 0 C0.33 0.66 0.66 1.32 1 2 C0.06553465 4.03144641 -0.93224776 6.03533587 -2 8 C-3.32 7.67 -4.64 7.34 -6 7 C-4.02 4.69 -2.04 2.38 0 0 Z " fill="#FDF5E0" transform="translate(266,236)"/>
<path d="M0 0 C0.66 0.99 1.32 1.98 2 3 C0.68 5.64 -0.64 8.28 -2 11 C-3 9 -3 9 -2.44140625 6.8359375 C-2.15136719 6.02382812 -1.86132812 5.21171875 -1.5625 4.375 C-1.27503906 3.55773437 -0.98757812 2.74046875 -0.69140625 1.8984375 C-0.46324219 1.27195313 -0.23507813 0.64546875 0 0 Z " fill="#DEF0F8" transform="translate(88,229)"/>
<path d="M0 0 C1.32 0 2.64 0 4 0 C2.63016497 3.16115776 2.0109362 3.9927092 -1 6 C-0.67 4.02 -0.34 2.04 0 0 Z " fill="#EAD194" transform="translate(236,217)"/>
<path d="M0 0 C-1 3 -1 3 -4 5 C-4.99 5 -5.98 5 -7 5 C-7 4.34 -7 3.68 -7 3 C-4.4385343 0.70351351 -3.52032428 0 0 0 Z " fill="#90B8C7" transform="translate(102,192)"/>
<path d="M0 0 C0 3.51716303 -0.82445585 4.37121748 -3 7 C-4.32 6.67 -5.64 6.34 -7 6 C-5.68 5.34 -4.36 4.68 -3 4 C-3 3.34 -3 2.68 -3 2 C-2.01 1.34 -1.02 0.68 0 0 Z " fill="#E0EEF4" transform="translate(147,140)"/>
<path d="M0 0 C1 2 1 2 0.3125 4.5 C-1 7 -1 7 -5 9 C-3.35 6.03 -1.7 3.06 0 0 Z " fill="#E0EFF5" transform="translate(207,117)"/>
<path d="M0 0 C3.057952 1.73559438 5.63379989 3.38472619 8 6 C6.68 6.33 5.36 6.66 4 7 C3.34 5.35 2.68 3.7 2 2 C1.34 2 0.68 2 0 2 C0 1.34 0 0.68 0 0 Z " fill="#E5F4FA" transform="translate(321,98)"/>
<path d="M0 0 C0.33 0 0.66 0 1 0 C1.66 2.97 2.32 5.94 3 9 C2.01 9.33 1.02 9.66 0 10 C0 6.7 0 3.4 0 0 Z " fill="#4B7192" transform="translate(267,423)"/>
<path d="M0 0 C2.33944736 0.28730055 4.6739143 0.61936779 7 1 C4.38058783 2.74627478 2.96175123 3.38722388 0 4 C-0.33 3.01 -0.66 2.02 -1 1 C-0.67 0.67 -0.34 0.34 0 0 Z " fill="#8EBFCF" transform="translate(382,326)"/>
<path d="M0 0 C1.98 0 3.96 0 6 0 C4.68 1.32 3.36 2.64 2 4 C1.01 3.67 0.02 3.34 -1 3 C-0.67 2.01 -0.34 1.02 0 0 Z " fill="#94BECD" transform="translate(401,317)"/>
<path d="M0 0 C1.32 0.33 2.64 0.66 4 1 C4.33 2.98 4.66 4.96 5 7 C3.29115995 5.37660195 1.62553283 3.70680947 0 2 C0 1.34 0 0.68 0 0 Z " fill="#A6C6D3" transform="translate(80,297)"/>
<path d="M0 0 C0.33 0.66 0.66 1.32 1 2 C1.66 2.33 2.32 2.66 3 3 C2.34 4.98 1.68 6.96 1 9 C0.34 8.34 -0.32 7.68 -1 7 C-0.625 3.375 -0.625 3.375 0 0 Z " fill="#72A9C0" transform="translate(77,281)"/>
<path d="M0 0 C0.33 0.66 0.66 1.32 1 2 C-0.1875 4.5625 -0.1875 4.5625 -2 7 C-3.32 7.33 -4.64 7.66 -6 8 C-4.02 5.36 -2.04 2.72 0 0 Z " fill="#FBEFCF" transform="translate(278,221)"/>
<path d="M0 0 C0.33 0 0.66 0 1 0 C1.36923077 4.55384615 1.36923077 4.55384615 -0.5 6.8125 C-0.995 7.204375 -1.49 7.59625 -2 8 C-2.99 7.67 -3.98 7.34 -5 7 C-4.0409375 6.1028125 -4.0409375 6.1028125 -3.0625 5.1875 C-0.79689611 3.09189663 -0.79689611 3.09189663 0 0 Z " fill="#FBF4DC" transform="translate(240,216)"/>
<path d="M0 0 C0.66 0.66 1.32 1.32 2 2 C1.34 2 0.68 2 0 2 C-0.33 2.99 -0.66 3.98 -1 5 C-3.0625 5.6875 -3.0625 5.6875 -5 6 C-5.33 5.34 -5.66 4.68 -6 4 C-4.02 2.68 -2.04 1.36 0 0 Z " fill="#E8F6FA" transform="translate(230,96)"/>
</svg>
